<svg xmlns="http://www.w3.org/2000/svg" width="18" height="13.5" viewBox="0 0 18 13.5">
  <g id="Card" transform="translate(-108 -156)">
    <path id="Path_17" data-name="Path 17" d="M123,156H111a3,3,0,0,0-3,3v7.5a3,3,0,0,0,3,3h12a3,3,0,0,0,3-3V159a3,3,0,0,0-3-3Zm1.5,3v1.875h-4.631a2.251,2.251,0,0,0-2.119-1.5,2.855,2.855,0,0,0-1.5.606V157.5H123a1.5,1.5,0,0,1,1.5,1.5Zm-11.25,3.375a.75.75,0,0,1,0-1.5,3.23,3.23,0,0,1,1.165.75,3.22,3.22,0,0,1-1.164.75Zm3.336-.75a3.22,3.22,0,0,1,1.164-.75.75.75,0,0,1,0,1.5,3.233,3.233,0,0,1-1.165-.75ZM111,157.5h3.75v2.481a2.855,2.855,0,0,0-1.5-.606,2.251,2.251,0,0,0-2.119,1.5H109.5V159a1.5,1.5,0,0,1,1.5-1.5Zm-1.5,9v-4.125h1.631a2.251,2.251,0,0,0,2.05,1.5l-.939,1.475a.75.75,0,0,0,1.266.806l1.242-1.952V168H111a1.5,1.5,0,0,1-1.5-1.5ZM123,168h-6.75v-3.8l1.242,1.952a.75.75,0,0,0,1.266-.806l-.939-1.475a2.251,2.251,0,0,0,2.05-1.5H124.5V166.5A1.5,1.5,0,0,1,123,168Zm0,0" transform="translate(0 0)" fill="#28a745"/>
  </g>
</svg>
