<svg xmlns="http://www.w3.org/2000/svg" width="38.737" height="38.737" viewBox="0 0 38.737 38.737">
  <g id="Icon" transform="translate(0)">
    <path id="Path_321" data-name="Path 321" d="M527.064,499.673a19.37,19.37,0,0,0-30.47,23.383L494,532.737l9.681-2.594a19.37,19.37,0,0,0,23.383-30.47Zm-13.7,30.794a17.062,17.062,0,0,1-8.925-2.512l-.416-.255-6.818,1.827,1.827-6.818-.255-.416a17.1,17.1,0,1,1,14.587,8.174Zm0,0" transform="translate(-494 -494)" fill="#231F20"/>
    <rect id="Rectangle_42" data-name="Rectangle 42" width="2.631" height="2.631" transform="translate(18.053 26.48)" fill="#231F20"/>
    <path id="Path_322" data-name="Path 322" d="M681.579,622.5A6.586,6.586,0,0,0,675,629.079h2.631a3.947,3.947,0,1,1,6.888,2.631l-4.257,4.761V639.6h2.632v-2.129l3.587-4.011a6.578,6.578,0,0,0-4.9-10.965Zm0,0" transform="translate(-662.21 -613.731)" fill="#231F20"/>
  </g>
</svg>
