<svg xmlns="http://www.w3.org/2000/svg" width="233.272" height="272.859" viewBox="0 0 233.272 272.859">
  <g id="Image" transform="translate(-108.755 -75.194)">
    <g id="Character_2" data-name="Character 2" transform="translate(250.318 92.941)">
      <g id="Group_52" data-name="Group 52">
        <path id="Path_148" data-name="Path 148" d="M338.753,162.6l-7.869-3.191s-10.386,18.942-13.362,19.9c-4.047,1.3-12.419,4.919-17.394,5.6a8.9,8.9,0,0,0-1.671,4.157c6.674,2.226,21.337-.729,24.476-3.06C330.088,180.686,338.753,162.6,338.753,162.6Z" transform="translate(-289.501 -110.337)" fill="#e58a7b"/>
        <g id="Group_48" data-name="Group 48" transform="translate(34.746 43.574)">
          <path id="Path_149" data-name="Path 149" d="M347.893,156.872c1.464,5.426-6.486,16.326-6.486,16.326l-10.443-5.858s1.947-4.481,4.331-9.044C339.143,150.927,346.221,150.679,347.893,156.872Z" transform="translate(-330.964 -152.479)" fill="#407bff"/>
          <path id="Path_150" data-name="Path 150" d="M347.893,156.872c1.464,5.426-6.486,16.326-6.486,16.326l-10.443-5.858s1.947-4.481,4.331-9.044C339.143,150.927,346.221,150.679,347.893,156.872Z" transform="translate(-330.964 -152.479)" opacity="0.2"/>
        </g>
        <path id="Path_151" data-name="Path 151" d="M336.212,171.469l4.1,2.3.717-12.589C338.649,163.014,336.962,168.534,336.212,171.469Z" transform="translate(-297.302 -110.702)" opacity="0.2"/>
        <g id="Group_49" data-name="Group 49" transform="translate(39.96 42.021)">
          <path id="Path_152" data-name="Path 152" d="M342.4,152.379s-8.109,18.04-3.382,51.635h31.953c.507-4.905-1.172-28.832,4.914-51.943a81.43,81.43,0,0,0-10.617-1.35,117.27,117.27,0,0,0-13.582,0A61.859,61.859,0,0,0,342.4,152.379Z" transform="translate(-337.535 -150.521)" fill="#407bff"/>
          <path id="Path_153" data-name="Path 153" d="M342.4,152.379s-8.109,18.04-3.382,51.635h31.953c.507-4.905-1.172-28.832,4.914-51.943a81.43,81.43,0,0,0-10.617-1.35,117.27,117.27,0,0,0-13.582,0A61.859,61.859,0,0,0,342.4,152.379Z" transform="translate(-337.535 -150.521)" opacity="0.2"/>
        </g>
        <path id="Path_154" data-name="Path 154" d="M334.323,416.74c-.05.852,12.064,1.542,27.058,1.542s27.188-.69,27.239-1.542-12.064-1.543-27.058-1.543S334.373,415.888,334.323,416.74Z" transform="translate(-296.911 -163.172)" fill="#e8ecf1" style="mix-blend-mode: multiply;isolation: isolate"/>
        <rect id="Rectangle_37" data-name="Rectangle 37" width="6.093" height="13.562" transform="translate(53.82 234.343) rotate(-21.076)" fill="#e58a7b"/>
        <path id="Path_155" data-name="Path 155" d="M390.925,405.853h-5.973l-2.192-13.834h5.974Z" transform="translate(-306.916 -158.384)" fill="#e58a7b"/>
        <path id="Path_156" data-name="Path 156" d="M382.538,408.582h6.712a.483.483,0,0,1,.484.409l.869,5.31a.938.938,0,0,1-.937,1.062c-2.341-.04-3.471-.178-6.421-.178-1.816,0-5.568.189-8.076.189-2.453,0-2.69-2.479-1.65-2.7,4.661-1.006,6.477-2.395,8.028-3.72A1.532,1.532,0,0,1,382.538,408.582Z" transform="translate(-304.887 -161.806)" fill="#263238"/>
        <path id="Path_157" data-name="Path 157" d="M356.667,405.459l6.364-1.85a.5.5,0,0,1,.589.248l2.359,4.757a.914.914,0,0,1-.6,1.263c-2.3.628-3.855,1.023-6.74,1.861-1.994.58-4.021,1.524-5.992,2.152a28.614,28.614,0,0,1-6.227.453c-2.452,0-3-2.586-1.948-2.7,2.66-.3,3.017-.159,4.486-.9a20.509,20.509,0,0,0,6.408-4.428A3,3,0,0,1,356.667,405.459Z" transform="translate(-298.903 -160.774)" fill="#263238"/>
        <path id="Path_158" data-name="Path 158" d="M299.417,190.749l-6.574-2.766-2.706,7.283a27.086,27.086,0,0,0,8.126,0Z" transform="translate(-287.785 -116.239)" fill="#e58a7b"/>
        <path id="Path_159" data-name="Path 159" d="M287.345,187.758l-.174,4.845,2.353,2.616,2.706-7.282Z" transform="translate(-287.172 -116.192)" fill="#e58a7b"/>
        <g id="Group_50" data-name="Group 50" transform="translate(53.819 232.154)">
          <rect id="Rectangle_38" data-name="Rectangle 38" width="6.096" height="6.991" transform="matrix(0.933, -0.36, 0.36, 0.933, 0, 2.195)" fill="#cf6f64"/>
          <path id="Path_160" data-name="Path 160" d="M388.735,392.023H382.76l1.132,7.131h5.976Z" transform="translate(-360.735 -390.54)" fill="#cf6f64"/>
        </g>
        <path id="Path_161" data-name="Path 161" d="M338.123,200.293c.115,1.435.253,2.9.424,4.411l23.76-7.713a17.02,17.02,0,0,0,9.14-6.628c.09-2.12.212-4.346.391-6.67.082-1.134.18-2.291.286-3.466.114-1.223.244-2.47.392-3.726Z" transform="translate(-297.696 -113.867)" opacity="0.2"/>
        <path id="Path_162" data-name="Path 162" d="M347.689,171.836l-.809-.1c.472-3.958,3.427-7.088,6.55-7.014l-.025.816C350.71,165.464,348.113,168.286,347.689,171.836Z" transform="translate(-299.505 -111.434)" fill="#fff"/>
        <path id="Path_163" data-name="Path 163" d="M353.192,181.07l-.133,0,.024-.816c2.729.1,5.292-2.744,5.717-6.3l.809.1C359.143,177.957,356.281,181.07,353.192,181.07Z" transform="translate(-300.781 -113.342)" fill="#fff"/>
        <path id="Path_164" data-name="Path 164" d="M368.222,131.5c-1.113,4.37-2.437,12.378.448,15.294,0,0-2.016,4.433-10.136,4.433-7.421,0-3.446-4.433-3.446-4.433,4.942-1.163,5.028-4.78,4.378-8.175Z" transform="translate(-300.981 -104.571)" fill="#e58a7b"/>
        <path id="Path_165" data-name="Path 165" d="M366.07,135.158l-5.182,4.211a13.612,13.612,0,0,1,.277,2.41c1.515,1.509,4.555-2.312,4.867-4.262A6.529,6.529,0,0,0,366.07,135.158Z" transform="translate(-302.399 -105.327)" fill="#cf6f64"/>
        <path id="Path_166" data-name="Path 166" d="M349.57,130.388a5.206,5.206,0,0,0,3.366,2.488c1.906.424,2.863-1.328,2.337-3.092-.473-1.588-2.034-3.72-3.948-3.355A2.644,2.644,0,0,0,349.57,130.388Z" transform="translate(-299.986 -103.516)" fill="#cf6f64"/>
        <path id="Path_167" data-name="Path 167" d="M352.929,113.738c-2.967,1.36-4.013,13.149-.282,14.891S358.551,111.163,352.929,113.738Z" transform="translate(-300.202 -100.854)" fill="#263238"/>
        <path id="Path_168" data-name="Path 168" d="M368.568,120.945c-.71,5.918-.826,9.4-3.993,12.437a7.627,7.627,0,0,1-12.974-4.048c-.959-5.317.363-14.1,6.294-16.456A7.643,7.643,0,0,1,368.568,120.945Z" transform="translate(-300.422 -100.596)" fill="#e58a7b"/>
        <path id="Path_169" data-name="Path 169" d="M357.645,113.512c4.39-1.124,7.62-1.888,6.467,1.777-1.536,4.881-3.378,9.61-.907,9.83,1.5.134,8.168-2.694,7.323-5.554-.738-2.491,2.36-3.163,2.932-4.434,2.058-4.575-3.821-3.981-2.775-6.749,1.019-2.7-4.736-7.251-7.924-5.025-5.162,3.6-14.033,3.551-9.369-2.359,3.34-4.232-2.62-3.363-2.62-3.363s3.6,2.135-2.458,5.436C341.892,106.57,347.77,116.039,357.645,113.512Z" transform="translate(-299.246 -97.561)" fill="#263238"/>
        <path id="Path_170" data-name="Path 170" d="M374.407,130.388a6.088,6.088,0,0,1-3.658,2.488c-1.955.424-2.706-1.328-1.974-3.092.659-1.588,2.47-3.72,4.341-3.355C374.96,126.789,375.458,128.833,374.407,130.388Z" transform="translate(-303.971 -103.516)" fill="#e58a7b"/>
        <path id="Path_171" data-name="Path 171" d="M337.893,217.94s-5.362,48-5.781,66.218c-.436,18.948,18.176,78.07,18.176,78.07l9.53-4s-11.1-54.012-9.555-72.621c1.681-20.288,8.634-67.665,8.634-67.665Z" transform="translate(-296.453 -122.427)" fill="#407bff"/>
        <path id="Path_172" data-name="Path 172" d="M355.627,234.05c-4.273,8.871-1.395,26.41.921,36.805.881-7.338,1.924-15.3,2.919-22.676C359.37,236.847,358.489,228.1,355.627,234.05Z" transform="translate(-300.858 -125.357)" opacity="0.2"/>
        <path id="Path_173" data-name="Path 173" d="M363.474,390.825c.044-.018,1.13,3.037,1.13,3.037l-10.984,4.613-1.73-3.218Z" transform="translate(-300.54 -158.138)" fill="#407bff"/>
        <path id="Path_174" data-name="Path 174" d="M353.686,217.94s4.1,45.653,6.822,62.756c2.978,18.73,14.675,81.119,14.675,81.119h10.942s-6.555-60.878-7.794-79.421c-1.344-20.126-4.027-64.454-4.027-64.454Z" transform="translate(-300.911 -122.427)" fill="#407bff"/>
        <path id="Path_175" data-name="Path 175" d="M391.521,395.559c.047,0,.366,3.057.366,3.057H379.861L379,395.105Z" transform="translate(-306.14 -159.022)" fill="#407bff"/>
        <path id="Path_176" data-name="Path 176" d="M386.674,357.032a.1.1,0,0,1-.1-.09c-.059-.554-5.971-55.515-7.085-72.175-1.207-18.08-3.634-58.169-3.659-58.572a.1.1,0,0,1,.1-.108h.007a.1.1,0,0,1,.1.1c.024.4,2.451,40.491,3.659,58.569,1.112,16.658,7.024,71.614,7.083,72.167a.1.1,0,0,1-.09.112Z" transform="translate(-305.485 -124.109)" opacity="0.2"/>
        <path id="Path_177" data-name="Path 177" d="M361.326,125.066c-.028.482-.306.873-.621.873s-.548-.391-.52-.873.307-.873.622-.873S361.355,124.583,361.326,125.066Z" transform="translate(-302.253 -103.062)" fill="#263238"/>
        <path id="Path_178" data-name="Path 178" d="M354.462,125.066c-.028.482-.306.873-.621.873s-.547-.391-.52-.873.307-.873.621-.873S354.491,124.583,354.462,125.066Z" transform="translate(-300.835 -103.062)" fill="#263238"/>
        <path id="Path_179" data-name="Path 179" d="M356.263,125.6a18.6,18.6,0,0,1-2.544,4.121,2.711,2.711,0,0,0,2.276.432Z" transform="translate(-300.918 -103.352)" fill="#df5753"/>
        <path id="Path_180" data-name="Path 180" d="M357.064,133.4a.132.132,0,0,1-.133-.141.152.152,0,0,1,.15-.142,4.084,4.084,0,0,0,3.2-1.492.146.146,0,0,1,.2-.041.137.137,0,0,1,.029.2A4.325,4.325,0,0,1,357.064,133.4Z" transform="translate(-301.581 -104.585)" fill="#263238"/>
        <path id="Path_181" data-name="Path 181" d="M362.152,123.2a.278.278,0,0,1-.25-.021,2.236,2.236,0,0,0-2.022-.211.272.272,0,0,1-.369-.132.3.3,0,0,1,.155-.378,2.785,2.785,0,0,1,2.557.237.273.273,0,0,1,.072.389A.306.306,0,0,1,362.152,123.2Z" transform="translate(-302.11 -102.661)" fill="#263238"/>
        <path id="Path_182" data-name="Path 182" d="M352.056,121.071a.251.251,0,0,1-.108-.061.281.281,0,0,1,0-.4,2.951,2.951,0,0,1,2.445-.984.263.263,0,0,1,.219.322.3.3,0,0,1-.334.238h0a2.36,2.36,0,0,0-1.93.8A.3.3,0,0,1,352.056,121.071Z" transform="translate(-300.535 -102.116)" fill="#263238"/>
        <path id="Path_183" data-name="Path 183" d="M380.037,161.745l-8.254-2.2s-8.093,19.921-10.952,21.222c-3.889,1.77-13.74,7.892-17.925,10.844-.232.987-.05,3.619.477,4.335,7.118-1.293,20.812-6.558,23.668-9.233C373.561,180.615,380.037,161.745,380.037,161.745Z" transform="translate(-298.664 -110.365)" fill="#e58a7b"/>
        <path id="Path_184" data-name="Path 184" d="M382.109,409.5a1.738,1.738,0,0,1-1.132-.3.812.812,0,0,1-.249-.749.488.488,0,0,1,.266-.4c.674-.338,2.538.845,2.748.981a.137.137,0,0,1,.056.144.156.156,0,0,1-.113.114A7.217,7.217,0,0,1,382.109,409.5Zm-.815-1.236a.414.414,0,0,0-.186.036.183.183,0,0,0-.1.166.545.545,0,0,0,.161.513,2.828,2.828,0,0,0,2.115.108A5.386,5.386,0,0,0,381.294,408.267Z" transform="translate(-306.495 -161.683)" fill="#407bff"/>
        <path id="Path_185" data-name="Path 185" d="M383.99,408.928a.138.138,0,0,1-.067-.017c-.6-.336-1.717-1.645-1.551-2.311a.5.5,0,0,1,.472-.371.734.734,0,0,1,.592.182c.661.567.7,2.291.7,2.364a.151.151,0,0,1-.149.152Zm-1.064-2.422c-.021,0-.042,0-.064,0-.185.022-.206.108-.214.143-.1.394.6,1.383,1.193,1.85a3.233,3.233,0,0,0-.6-1.873A.476.476,0,0,0,382.926,406.506Z" transform="translate(-306.833 -161.318)" fill="#407bff"/>
        <path id="Path_186" data-name="Path 186" d="M355.426,408.321a2.261,2.261,0,0,1-1.5-.01.736.736,0,0,1-.386-.606.466.466,0,0,1,.161-.42c.64-.57,3.227.041,3.521.113a.13.13,0,0,1,.1.124.15.15,0,0,1-.089.143A10.7,10.7,0,0,1,355.426,408.321Zm-1.29-.943a.591.591,0,0,0-.25.113.181.181,0,0,0-.061.168.482.482,0,0,0,.252.4c.421.229,1.4.048,2.659-.478A7.667,7.667,0,0,0,354.136,407.378Z" transform="translate(-300.881 -161.488)" fill="#407bff"/>
        <path id="Path_187" data-name="Path 187" d="M357.519,407.237a.168.168,0,0,1-.06,0c-.769-.143-2.41-1.055-2.426-1.739,0-.159.071-.378.447-.508a1.007,1.007,0,0,1,.817.047c.862.425,1.312,1.949,1.332,2.014a.149.149,0,0,1-.035.138A.147.147,0,0,1,357.519,407.237Zm-1.876-2a.71.71,0,0,0-.083.025c-.246.086-.244.186-.243.22.009.41,1.15,1.163,1.954,1.417a3.058,3.058,0,0,0-1.111-1.6A.73.73,0,0,0,355.643,405.233Z" transform="translate(-301.189 -161.05)" fill="#407bff"/>
        <path id="Path_188" data-name="Path 188" d="M341.374,199.373l-8.273,3.808-.96,2.335,3.057,2.057s5.706-.621,7.332-4.288Z" transform="translate(-296.461 -118.591)" fill="#e58a7b"/>
        <path id="Path_189" data-name="Path 189" d="M343.822,204.173a11.433,11.433,0,0,0-1.538-4.49l1.3-.978a12.557,12.557,0,0,1,1.842,5.2Z" transform="translate(-298.556 -118.453)" fill="#263238"/>
        <path id="Path_190" data-name="Path 190" d="M345.223,200.6a1.59,1.59,0,1,1-1.934-.617A1.447,1.447,0,0,1,345.223,200.6Z" transform="translate(-298.548 -118.689)" fill="#263238"/>
        <path id="Path_191" data-name="Path 191" d="M326.3,207.248l1.1,1.113,7.424-3.175-2.932-1.013Z" transform="translate(-295.255 -119.583)" fill="#e58a7b"/>
        <path id="Path_192" data-name="Path 192" d="M363.474,390.825c.044-.018,1.13,3.037,1.13,3.037l-10.984,4.613-1.73-3.218Z" transform="translate(-300.54 -158.138)" opacity="0.2"/>
        <path id="Path_193" data-name="Path 193" d="M391.521,395.559c.047,0,.366,3.057.366,3.057H379.861L379,395.105Z" transform="translate(-306.14 -159.022)" opacity="0.2"/>
        <g id="Group_51" data-name="Group 51" transform="translate(65.429 43.449)">
          <path id="Path_194" data-name="Path 194" d="M387.73,157.97c2.184,7.035-6.316,16.646-6.316,16.646l-11.78-4.808a121.092,121.092,0,0,1,4.819-11.96C378.043,150.065,385.527,150.868,387.73,157.97Z" transform="translate(-369.634 -152.322)" fill="#407bff"/>
          <path id="Path_195" data-name="Path 195" d="M387.73,157.97c2.184,7.035-6.316,16.646-6.316,16.646l-11.78-4.808a121.092,121.092,0,0,1,4.819-11.96C378.043,150.065,385.527,150.868,387.73,157.97Z" transform="translate(-369.634 -152.322)" opacity="0.2"/>
        </g>
      </g>
    </g>
    <g id="Screen" transform="translate(172.888 75.194)">
      <g id="Group_54" data-name="Group 54">
        <path id="Path_196" data-name="Path 196" d="M298.97,75.194H205.345l-8.716,194.964h93.625Z" transform="translate(-191.04 -75.194)" fill="#407bff"/>
        <path id="Path_197" data-name="Path 197" d="M295.447,78.566H201.822L193.107,273.53h93.625Z" transform="translate(-190.312 -75.89)" fill="#fafafa" opacity="0.56"/>
        <path id="Path_198" data-name="Path 198" d="M291.925,81.938H198.3L189.584,276.9h93.625Z" transform="translate(-189.584 -76.587)" fill="#407bff" opacity="0.07"/>
        <path id="Path_199" data-name="Path 199" d="M284.158,189.105H204.245l-.667,14.922h79.914Z" transform="translate(-192.475 -98.723)" fill="#fff"/>
        <path id="Path_200" data-name="Path 200" d="M248.421,175.39H204.954l-.3,6.676h43.467Z" transform="translate(-192.698 -95.89)" fill="#407bff"/>
        <path id="Path_201" data-name="Path 201" d="M281.889,239.849H201.977l-.667,14.922h79.913Z" transform="translate(-192.006 -109.205)" fill="#fff"/>
        <path id="Path_202" data-name="Path 202" d="M270.2,284.036H216.461l-.8,17.883H269.4Z" transform="translate(-194.971 -118.332)" fill="#407bff" opacity="0.47"/>
        <path id="Path_203" data-name="Path 203" d="M265.853,305.361H212.115a.1.1,0,0,1-.069-.029.091.091,0,0,1-.025-.069l.8-17.884a.094.094,0,0,1,.094-.09h53.738a.1.1,0,0,1,.069.029.1.1,0,0,1,.025.07l-.8,17.883A.093.093,0,0,1,265.853,305.361Zm-53.639-.189h53.549l.791-17.695H213Z" transform="translate(-194.219 -119.004)" fill="#fff"/>
        <path id="Path_204" data-name="Path 204" d="M238.56,226.134H202.686l-.3,6.676h35.875Z" transform="translate(-192.229 -106.372)" fill="#407bff"/>
        <path id="Path_205" data-name="Path 205" d="M272.518,123.087a21.011,21.011,0,0,1-4.415,11.944,21.342,21.342,0,0,1-16.82,8.382,19.282,19.282,0,0,1-19.41-20.326A21.461,21.461,0,0,1,253.1,102.76,19.268,19.268,0,0,1,272.518,123.087Z" transform="translate(-198.315 -80.888)" fill="#fff"/>
        <path id="Path_206" data-name="Path 206" d="M282.7,106.717a5.585,5.585,0,0,1-1.174,3.174,5.67,5.67,0,0,1-4.469,2.227,5.123,5.123,0,0,1-4.268-2.227,5.181,5.181,0,0,1-.889-3.174,5.7,5.7,0,0,1,5.641-5.4A5.12,5.12,0,0,1,282.7,106.717Z" transform="translate(-206.587 -80.59)" fill="#407bff"/>
        <path id="Path_207" data-name="Path 207" d="M214.019,197.887a2.525,2.525,0,0,1-2.5,2.391,2.268,2.268,0,0,1-2.284-2.391,2.525,2.525,0,0,1,2.5-2.391A2.266,2.266,0,0,1,214.019,197.887Z" transform="translate(-193.643 -100.043)" fill="#263238"/>
        <path id="Path_208" data-name="Path 208" d="M227.507,197.887a2.525,2.525,0,0,1-2.5,2.391,2.266,2.266,0,0,1-2.284-2.391,2.524,2.524,0,0,1,2.5-2.391A2.266,2.266,0,0,1,227.507,197.887Z" transform="translate(-196.43 -100.043)" fill="#263238"/>
        <path id="Path_209" data-name="Path 209" d="M240.994,197.887a2.526,2.526,0,0,1-2.5,2.391,2.267,2.267,0,0,1-2.284-2.391,2.524,2.524,0,0,1,2.5-2.391A2.267,2.267,0,0,1,240.994,197.887Z" transform="translate(-199.215 -100.043)" fill="#263238"/>
        <path id="Path_210" data-name="Path 210" d="M211.751,248.63a2.525,2.525,0,0,1-2.5,2.391,2.267,2.267,0,0,1-2.284-2.391,2.524,2.524,0,0,1,2.5-2.391A2.267,2.267,0,0,1,211.751,248.63Z" transform="translate(-193.175 -110.525)" fill="#263238"/>
        <path id="Path_211" data-name="Path 211" d="M225.238,248.63a2.525,2.525,0,0,1-2.5,2.391,2.267,2.267,0,0,1-2.284-2.391,2.525,2.525,0,0,1,2.5-2.391A2.266,2.266,0,0,1,225.238,248.63Z" transform="translate(-195.961 -110.525)" fill="#263238"/>
        <path id="Path_212" data-name="Path 212" d="M238.725,248.63a2.525,2.525,0,0,1-2.5,2.391,2.267,2.267,0,0,1-2.284-2.391,2.525,2.525,0,0,1,2.5-2.391A2.266,2.266,0,0,1,238.725,248.63Z" transform="translate(-198.747 -110.525)" fill="#263238"/>
        <path id="Path_213" data-name="Path 213" d="M252.213,248.63a2.525,2.525,0,0,1-2.5,2.391,2.266,2.266,0,0,1-2.284-2.391,2.524,2.524,0,0,1,2.5-2.391A2.267,2.267,0,0,1,252.213,248.63Z" transform="translate(-201.533 -110.525)" fill="#263238"/>
        <path id="Path_214" data-name="Path 214" d="M265.7,248.63a2.524,2.524,0,0,1-2.5,2.391,2.267,2.267,0,0,1-2.284-2.391,2.524,2.524,0,0,1,2.5-2.391A2.266,2.266,0,0,1,265.7,248.63Z" transform="translate(-204.319 -110.525)" fill="#263238"/>
        <g id="Group_53" data-name="Group 53" transform="translate(36.906 27.184)">
          <path id="Path_215" data-name="Path 215" d="M263.953,117.676a8.68,8.68,0,0,1-8.588,8.221,7.792,7.792,0,0,1-7.853-8.221,8.68,8.68,0,0,1,8.588-8.221A7.793,7.793,0,0,1,263.953,117.676Z" transform="translate(-238.454 -109.455)" fill="#407bff"/>
          <path id="Path_216" data-name="Path 216" d="M268.981,141.784a21.342,21.342,0,0,1-16.82,8.382,19.276,19.276,0,0,1-16.062-8.382c3.856-3.84,9.961-6.335,16.72-6.335S265.466,137.944,268.981,141.784Z" transform="translate(-236.098 -114.824)" fill="#407bff"/>
          <path id="Path_217" data-name="Path 217" d="M263.953,117.676a8.68,8.68,0,0,1-8.588,8.221,7.792,7.792,0,0,1-7.853-8.221,8.68,8.68,0,0,1,8.588-8.221A7.793,7.793,0,0,1,263.953,117.676Z" transform="translate(-238.454 -109.455)" fill="#fff" opacity="0.1"/>
          <path id="Path_218" data-name="Path 218" d="M268.981,141.784a21.342,21.342,0,0,1-16.82,8.382,19.276,19.276,0,0,1-16.062-8.382c3.856-3.84,9.961-6.335,16.72-6.335S265.466,137.944,268.981,141.784Z" transform="translate(-236.098 -114.824)" fill="#fff" opacity="0.1"/>
        </g>
      </g>
    </g>
    <g id="Character_1" data-name="Character 1" transform="translate(108.755 140.787)">
      <g id="Group_66" data-name="Group 66">
        <g id="Group_61" data-name="Group 61" transform="translate(4.208)">
          <path id="Path_219" data-name="Path 219" d="M127.031,211.711c-.752,1.648-1.542,3.461-2.238,5.23-.7,1.785-1.4,3.573-2.006,5.384a67.969,67.969,0,0,0-2.837,10.949l-.181,1.169a1.782,1.782,0,0,0,.058.591,6.1,6.1,0,0,0,.872,1.84,23.093,23.093,0,0,0,3.525,3.952,53.968,53.968,0,0,0,4.38,3.663c1.523,1.17,3.129,2.318,4.7,3.391l-1.478,2.784a56.278,56.278,0,0,1-10.7-6.1,25.573,25.573,0,0,1-4.792-4.507,11.252,11.252,0,0,1-1.9-3.39,7.615,7.615,0,0,1-.382-2.337c0-.2.016-.471.029-.6l.039-.394.079-.788a61.758,61.758,0,0,1,2.591-12.17c.619-1.958,1.28-3.9,2.034-5.8.769-1.915,1.529-3.753,2.491-5.68Z" transform="translate(-114.058 -168.405)" fill="#e58a7b"/>
          <path id="Path_220" data-name="Path 220" d="M136.528,256.693l5.606-2.844-1.449,6.162s-3.85,1.075-5.64-.793Z" transform="translate(-118.393 -177.69)" fill="#e58a7b"/>
          <path id="Path_221" data-name="Path 221" d="M148.737,254.859l-1.492,5.094-5.092.057,1.449-6.162Z" transform="translate(-119.862 -177.69)" fill="#e58a7b"/>
          <path id="Path_222" data-name="Path 222" d="M160.433,175a15.773,15.773,0,0,0,1.258,3.136,1.288,1.288,0,0,1-1.258.4Z" transform="translate(-123.637 -161.404)" fill="#df5753"/>
          <path id="Path_223" data-name="Path 223" d="M159.474,173.677c0,.5.267.909.594.909s.594-.407.594-.909-.266-.909-.594-.909S159.474,173.175,159.474,173.677Z" transform="translate(-123.439 -160.942)" fill="#263238"/>
          <path id="Path_224" data-name="Path 224" d="M160.04,172.713l1.206-.348S160.627,173.308,160.04,172.713Z" transform="translate(-123.556 -160.859)" fill="#263238"/>
          <path id="Path_225" data-name="Path 225" d="M140.6,182.336c.724,3.693,1.446,10.462-1.138,12.926,0,0,1.01,3.747,7.873,3.747,7.547,0,3.607-3.747,3.607-3.747-4.12-.984-4.013-4.039-3.3-6.91Z" transform="translate(-119.306 -162.919)" fill="#e58a7b"/>
          <path id="Path_226" data-name="Path 226" d="M138.369,169.384c.378,6.167.407,8.784,3.521,11.949,4.684,4.761,12.175,2.948,13.647-3.208,1.324-5.541.482-14.694-5.553-17.148A8.426,8.426,0,0,0,138.369,169.384Z" transform="translate(-119.076 -158.372)" fill="#e58a7b"/>
          <path id="Path_227" data-name="Path 227" d="M137.441,162.873c-3.092,1.127-7.218.289-5.6,9.833,1.714,10.105-.924,13.431-.924,13.431a63,63,0,0,0,23.718-.15s-3.658-6.4-2.632-11.065c1.309-5.953.271-8.153.271-8.153S141.789,161.288,137.441,162.873Z" transform="translate(-117.541 -158.839)" fill="#263238"/>
          <path id="Path_228" data-name="Path 228" d="M155.64,175.343a6.22,6.22,0,0,0,.971,3.308c.836,1.286,1.827.762,2.076-.573.224-1.2.058-3.318-1.012-4.139C156.62,173.13,155.655,173.947,155.64,175.343Z" transform="translate(-122.647 -161.118)" fill="#e58a7b"/>
          <path id="Path_229" data-name="Path 229" d="M135.724,162.978c-.893-2.5,3.348-6.333,12.311-4.738s9.358,9.052,9.358,9.052l-1.815-2.153.082,2.267-9.213,1.77Z" transform="translate(-118.509 -157.863)" fill="#263238"/>
          <g id="Group_55" data-name="Group 55" transform="translate(17.956 30.089)">
            <path id="Path_230" data-name="Path 230" d="M136.706,198.46h0a1.4,1.4,0,0,1,1.151-1.606c2.791-.461,9.136-1.395,12.329-.952,2.372.328,3,1.714,3.1,2.847a1.4,1.4,0,0,1-1.463,1.51l-13.8-.623A1.4,1.4,0,0,1,136.706,198.46Z" transform="translate(-136.688 -195.786)" fill="#407bff"/>
            <path id="Path_231" data-name="Path 231" d="M136.706,198.46h0a1.4,1.4,0,0,1,1.151-1.606c2.791-.461,9.136-1.395,12.329-.952,2.372.328,3,1.714,3.1,2.847a1.4,1.4,0,0,1-1.463,1.51l-13.8-.623A1.4,1.4,0,0,1,136.706,198.46Z" transform="translate(-136.688 -195.786)" opacity="0.6"/>
          </g>
          <path id="Path_232" data-name="Path 232" d="M146.761,370.84l5.113,3.55,8.562-11.6-5.113-3.55Z" transform="translate(-120.813 -199.459)" fill="#e58a7b"/>
          <path id="Path_233" data-name="Path 233" d="M131.715,370.371l5.409,3.08,7.579-12.273-5.409-3.081Z" transform="translate(-117.705 -199.224)" fill="#e58a7b"/>
          <g id="Group_56" data-name="Group 56" transform="translate(17.676 158.877)">
            <path id="Path_234" data-name="Path 234" d="M161.512,362.788l-4.412,5.983-5.116-3.551,4.413-5.983Z" transform="translate(-139.568 -358.336)" fill="#cf6f64"/>
            <path id="Path_235" data-name="Path 235" d="M140.245,358.1l5.411,3.082-3.909,6.324-5.412-3.082Z" transform="translate(-136.336 -358.102)" fill="#cf6f64"/>
          </g>
          <g id="Group_57" data-name="Group 57" transform="translate(10.276 71.508)">
            <path id="Path_236" data-name="Path 236" d="M147,247.988s19.979,25.181,16.231,49.258c-3.027,19.449-20.56,45.784-20.56,45.784l-8.244-4.1a269.192,269.192,0,0,0,14.838-36.055,26.654,26.654,0,0,0-3.2-23.088c-10.12-14.782-26.334-5.987-15.428-31.8Z" transform="translate(-127.01 -247.988)" fill="#407bff"/>
            <path id="Path_237" data-name="Path 237" d="M147,247.988s19.979,25.181,16.231,49.258c-3.027,19.449-20.56,45.784-20.56,45.784l-8.244-4.1a269.192,269.192,0,0,0,14.838-36.055,26.654,26.654,0,0,0-3.2-23.088c-10.12-14.782-26.334-5.987-15.428-31.8Z" transform="translate(-127.01 -247.988)" opacity="0.6"/>
          </g>
          <path id="Path_238" data-name="Path 238" d="M163.793,267.629l-2.9-2.887c0,.229,5.625,34.954,7.208,44.714a59.525,59.525,0,0,0,2.128-8.749C172.061,288.917,168.2,276.859,163.793,267.629Z" transform="translate(-123.732 -179.94)" opacity="0.4"/>
          <g id="Group_58" data-name="Group 58" transform="translate(15.782 71.508)">
            <path id="Path_239" data-name="Path 239" d="M157.352,247.988s24.056,31.642,24.733,50.618c.567,15.9-26.2,46.611-26.2,46.611l-7.772-5.028s15.654-21.833,19.595-39.68c-1.5-17.666-33.755-52.52-33.755-52.52Z" transform="translate(-133.949 -247.988)" fill="#407bff"/>
            <path id="Path_240" data-name="Path 240" d="M157.352,247.988s24.056,31.642,24.733,50.618c.567,15.9-26.2,46.611-26.2,46.611l-7.772-5.028s15.654-21.833,19.595-39.68c-1.5-17.666-33.755-52.52-33.755-52.52Z" transform="translate(-133.949 -247.988)" opacity="0.6"/>
          </g>
          <path id="Path_241" data-name="Path 241" d="M124.621,200.382c-2.577.608-5.038,9.96-5.038,9.96l10.047,6.708s3.348-7.392,2.179-10.631C130.592,203.047,127.874,199.614,124.621,200.382Z" transform="translate(-115.199 -166.624)" fill="#407bff"/>
          <path id="Path_242" data-name="Path 242" d="M128.228,207.994l-.7,8.148,3.741,2.5a33.477,33.477,0,0,0,2.275-7.248Z" transform="translate(-116.84 -168.218)" opacity="0.2"/>
          <path id="Path_243" data-name="Path 243" d="M158.67,200.168s2.966,1.045-2.975,37.57H130.414c.424-10.289.436-16.634-4.481-37.75a74.67,74.67,0,0,1,10.735-1.415,80.486,80.486,0,0,1,11.48,0C153.079,199.024,158.67,200.168,158.67,200.168Z" transform="translate(-116.511 -166.23)" fill="#407bff"/>
          <path id="Path_244" data-name="Path 244" d="M168.854,207.28c.573,1.584,1.179,3.3,1.809,4.94q.908,2.5,1.883,4.992l1.946,4.984.492,1.245.247.623.124.311c.021.056.017.052.01.045a1.743,1.743,0,0,0-.555-.5,2.212,2.212,0,0,0-1.036-.3,2.049,2.049,0,0,0-.882.159c-.358.171-.363.244-.355.232a1.028,1.028,0,0,0,.178-.18,11.349,11.349,0,0,0,1.134-1.849c.375-.728.73-1.506,1.083-2.294.7-1.581,1.341-3.231,1.991-4.884s1.248-3.34,1.848-5.026l1.807-5.065,3.057.771c-.605,3.622-1.387,7.17-2.319,10.73-.455,1.784-.982,3.553-1.585,5.338-.3.894-.636,1.786-1.021,2.7a16.6,16.6,0,0,1-1.508,2.87,7.05,7.05,0,0,1-.692.856A4.422,4.422,0,0,1,175.06,229a3.569,3.569,0,0,1-1.54.289,3.533,3.533,0,0,1-1.674-.5,4.2,4.2,0,0,1-1.443-1.5c-.121-.2-.224-.409-.3-.559l-.151-.308-.3-.616-.6-1.232c-.784-1.651-1.553-3.311-2.28-4.99s-1.423-3.373-2.1-5.078c-.652-1.73-1.3-3.407-1.869-5.247Z" transform="translate(-124.127 -167.541)" fill="#e58a7b"/>
          <path id="Path_245" data-name="Path 245" d="M165.265,200.575c3.039.724,6.454,9.7,6.454,9.7l-9.032,7.7s-5.852-9.79-4.669-13.023C159.252,201.583,161.3,199.629,165.265,200.575Z" transform="translate(-123.106 -166.637)" fill="#407bff"/>
          <path id="Path_246" data-name="Path 246" d="M186.592,200.5l3.169-2.652,2.2,3.435-1.624,2.868s-2.587,2.368-4.877,1.163h0A4.115,4.115,0,0,1,186.592,200.5Z" transform="translate(-128.736 -166.123)" fill="#e58a7b"/>
          <path id="Path_247" data-name="Path 247" d="M196.724,197.856l-.237.864-5.021.843-.5-1.715Z" transform="translate(-129.945 -166.123)" fill="#e58a7b"/>
          <path id="Path_248" data-name="Path 248" d="M160.043,368.793l-9.06-5.861,1.622-2.821,10.183,6.259Z" transform="translate(-121.685 -199.64)" fill="#407bff"/>
          <path id="Path_249" data-name="Path 249" d="M142.379,376.545a5.432,5.432,0,0,1-2.243-.777.146.146,0,0,1-.075-.144.148.148,0,0,1,.1-.126c.244-.077,2.394-.736,3-.225a.5.5,0,0,1,.168.478.834.834,0,0,1-.448.687A1.121,1.121,0,0,1,142.379,376.545Zm-1.784-.866c.986.5,1.779.686,2.161.5a.555.555,0,0,0,.288-.463.209.209,0,0,0-.067-.213C142.656,375.231,141.465,375.44,140.595,375.679Z" transform="translate(-119.429 -202.732)" fill="#263238"/>
          <path id="Path_250" data-name="Path 250" d="M140.209,375.331a.148.148,0,0,1-.142-.188c.021-.072.516-1.8,1.331-2.188a.773.773,0,0,1,.654-.021.514.514,0,0,1,.365.532c-.056.714-1.51,1.7-2.172,1.861A.129.129,0,0,1,140.209,375.331Zm1.538-2.165a.524.524,0,0,0-.221.054c-.486.234-.893,1.165-1.088,1.73.7-.294,1.651-1.072,1.685-1.507.006-.071-.01-.163-.186-.236A.485.485,0,0,0,141.746,373.165Z" transform="translate(-119.429 -202.275)" fill="#263238"/>
          <path id="Path_251" data-name="Path 251" d="M156.524,380.7c-.893,0-2.14-1.148-2.821-1.854a.147.147,0,0,1-.026-.168.16.16,0,0,1,.151-.08c.313.04,3.073.413,3.463,1.193a.477.477,0,0,1-.018.464.82.82,0,0,1-.628.439A1,1,0,0,1,156.524,380.7Zm-2.3-1.747c1,.974,1.88,1.514,2.383,1.446a.527.527,0,0,0,.409-.291.181.181,0,0,0,.01-.186C156.814,379.5,155.341,379.132,154.224,378.952Z" transform="translate(-122.238 -203.458)" fill="#263238"/>
          <path id="Path_252" data-name="Path 252" d="M154.311,378.566a3,3,0,0,1-.53-.04.147.147,0,0,1-.086-.239c.045-.055,1.119-1.349,2.134-1.438a1.068,1.068,0,0,1,.816.256c.312.267.29.5.217.657C156.609,378.292,155.238,378.566,154.311,378.566Zm-.2-.3c.886.049,2.3-.245,2.488-.632.016-.033.063-.13-.143-.307a.773.773,0,0,0-.6-.186A3.406,3.406,0,0,0,154.107,378.269Z" transform="translate(-122.238 -203.096)" fill="#263238"/>
          <path id="Path_253" data-name="Path 253" d="M138,374.418l-6.729-1.9a.493.493,0,0,0-.594.273l-2.272,5.108a1,1,0,0,0,.659,1.337c2.357.622,3.528.8,6.487,1.642,1.82.514,4.427,1.455,6.941,2.166,2.459.7,3.351-1.738,2.368-2.259-4.409-2.337-4.757-3.938-5.963-5.714A1.626,1.626,0,0,0,138,374.418Z" transform="translate(-117.006 -202.198)" fill="#407bff"/>
          <path id="Path_254" data-name="Path 254" d="M151.223,376.681l-5.745-3.988a.491.491,0,0,0-.651.066l-3.81,4.09a1,1,0,0,0,.188,1.478c2.027,1.356,3.074,1.909,5.6,3.663,1.554,1.078,4.657,3.471,6.8,4.962,2.1,1.457,3.734-.553,2.974-1.366-3.409-3.644-4.161-5.928-4.723-8A1.623,1.623,0,0,0,151.223,376.681Z" transform="translate(-119.576 -202.219)" fill="#407bff"/>
          <path id="Path_255" data-name="Path 255" d="M145.378,366.365l-10.359-5.149,1.072-2.8,11.057,5.42Z" transform="translate(-118.388 -199.289)" fill="#407bff"/>
          <g id="Group_59" data-name="Group 59" transform="translate(12.628 69.835)">
            <path id="Path_256" data-name="Path 256" d="M130.87,246.069l-.877,2.263c-.088.176.12.355.412.355h26.25c.228,0,.417-.111.431-.255l.229-2.263c.015-.157-.182-.29-.432-.29h-25.6A.46.46,0,0,0,130.87,246.069Z" transform="translate(-129.973 -245.879)" fill="#407bff"/>
            <path id="Path_257" data-name="Path 257" d="M130.87,246.069l-.877,2.263c-.088.176.12.355.412.355h26.25c.228,0,.417-.111.431-.255l.229-2.263c.015-.157-.182-.29-.432-.29h-25.6A.46.46,0,0,0,130.87,246.069Z" transform="translate(-129.973 -245.879)" fill="#fff" opacity="0.4"/>
          </g>
          <g id="Group_60" data-name="Group 60" transform="translate(16.736 69.635)">
            <path id="Path_258" data-name="Path 258" d="M136.069,248.879h-.686c-.136,0-.24-.07-.231-.156l.321-2.94c.01-.086.129-.156.266-.156h.686c.136,0,.24.07.231.156l-.321,2.94C136.325,248.809,136.2,248.879,136.069,248.879Z" transform="translate(-135.151 -245.627)" fill="#407bff"/>
            <path id="Path_259" data-name="Path 259" d="M156.475,248.879h-.686c-.136,0-.24-.07-.231-.156l.321-2.94c.01-.086.129-.156.265-.156h.686c.136,0,.24.07.231.156l-.322,2.94C156.732,248.809,156.612,248.879,156.475,248.879Z" transform="translate(-139.366 -245.627)" fill="#407bff"/>
          </g>
        </g>
        <g id="Group_65" data-name="Group 65" transform="translate(0 92.396)">
          <g id="Group_62" data-name="Group 62" transform="translate(0 7.898)">
            <path id="Path_260" data-name="Path 260" d="M108.755,416.74c-.039.851,9.447,1.542,21.186,1.543s21.29-.69,21.328-1.541-9.446-1.544-21.186-1.545S108.794,415.888,108.755,416.74Z" transform="translate(-108.755 -311.313)" fill="#f5f5f5" style="mix-blend-mode: multiply;isolation: isolate"/>
            <path id="Path_261" data-name="Path 261" d="M144.924,387.52a51.791,51.791,0,0,1-10.462-3.995c-.071-.04-.147-.071-.219-.109v-17h7.565a2.265,2.265,0,0,0,0-4.53h-7.565V284.268h-4.53v77.617h-7.565a2.265,2.265,0,1,0,0,4.53h7.565v17c-.073.037-.148.068-.219.109a51.791,51.791,0,0,1-10.462,3.995,1.11,1.11,0,0,0,.311,2.176h25.268A1.11,1.11,0,0,0,144.924,387.52Z" transform="translate(-110.713 -284.268)" fill="#e0e0e0"/>
          </g>
          <g id="Group_64" data-name="Group 64" transform="translate(3.047)">
            <path id="Rectangle_41" data-name="Rectangle 41" d="M5.181,0H31.259a5.18,5.18,0,0,1,5.18,5.18v6.249a5.181,5.181,0,0,1-5.181,5.181H5.18A5.18,5.18,0,0,1,0,11.429V5.181A5.181,5.181,0,0,1,5.181,0Z" fill="#407bff"/>
            <g id="Group_63" data-name="Group 63" transform="translate(3.85 16.609)">
              <path id="Path_262" data-name="Path 262" d="M117.448,295.247v1.443c0,1.191,1.3,2.164,2.879,2.164h22.98c1.583,0,2.879-.974,2.879-2.164v-1.443Z" transform="translate(-117.448 -295.247)" fill="#407bff"/>
              <path id="Path_263" data-name="Path 263" d="M117.448,295.247v1.443c0,1.191,1.3,2.164,2.879,2.164h22.98c1.583,0,2.879-.974,2.879-2.164v-1.443Z" transform="translate(-117.448 -295.247)" fill="#fff" opacity="0.3"/>
            </g>
          </g>
        </g>
      </g>
    </g>
  </g>
</svg>
