<svg xmlns="http://www.w3.org/2000/svg" width="268.096" height="217.491" viewBox="0 0 268.096 217.491">
  <g id="Image" transform="translate(-46.598 -109.666)">
    <g id="Character_Female" data-name="Character Female" transform="translate(46.598 149.792)">
      <g id="Group_32" data-name="Group 32" transform="translate(0 0)">
        <g id="Group_24" data-name="Group 24" transform="translate(98.21 145.1)">
          <path id="Path_40" data-name="Path 40" d="M197.8,380.331l-4.54,2.923-8.23-9.572,4.54-2.924Z" transform="translate(-185.033 -370.758)" fill="#ff8b7b"/>
          <path id="Path_41" data-name="Path 41" d="M189.576,370.76l-4.541,2.925,4.244,4.933,4.541-2.925Z" transform="translate(-185.034 -370.759)" opacity="0.2"/>
        </g>
        <g id="Group_25" data-name="Group 25" transform="translate(65.634 157.868)">
          <path id="Path_42" data-name="Path 42" d="M149.757,401.169l-5.216.51-5.427-12.415,5.216-.51Z" transform="translate(-139.114 -388.755)" fill="#ff8b7b"/>
          <path id="Path_43" data-name="Path 43" d="M139.118,389.27l2.8,6.4h5.441l-3.019-6.909Z" transform="translate(-139.115 -388.757)" opacity="0.2"/>
        </g>
        <path id="Path_44" data-name="Path 44" d="M85.206,168.908c-2.628.24-2.7-4.216-7.3-2.118-5.86,2.667-3.884,6.8-8.456,6.63s-7.645,3.4-6.621,6.065,2.6,5.175-.631,6.246-5.438,2.018-4.966,4.7,2.759,3.761-1.1,5.466-3.468,9.1.315,9.11.157,3.693,3.547,7.434,8.549,4.291,10.7,2.413,4.548-3.378,8.591-.54,10.885,3.547,10.578-.945-4.239-7.449-.539-9.794,8.518-3.495,7-8.047c-.955-2.872-3.852-5.309-1.512-7.434,3.794-3.446,3.813-11.25-.839-13.229C91.265,173.713,93.871,168.12,85.206,168.908Z" transform="translate(-48.577 -166.227)" fill="#263238"/>
        <path id="Path_45" data-name="Path 45" d="M79.491,219.275a60.29,60.29,0,0,1-.713,6.022c-.33,1.975-.763,3.935-1.278,5.885a44.753,44.753,0,0,1-1.927,5.788c-.385.952-.822,1.894-1.292,2.826-.236.465-.487.926-.749,1.385-.125.231-.272.455-.407.682l-.207.339a4.879,4.879,0,0,1-.465.627,4.128,4.128,0,0,1-1.4,1.043,4.386,4.386,0,0,1-1.534.389,6.017,6.017,0,0,1-2.3-.311,13.872,13.872,0,0,1-3.121-1.531,38.457,38.457,0,0,1-4.848-3.752,81.358,81.358,0,0,1-8.131-8.564l1.989-1.876c1.415,1.248,2.861,2.517,4.326,3.724,1.451,1.226,2.93,2.412,4.437,3.52a37.309,37.309,0,0,0,4.542,3,9.226,9.226,0,0,0,2.128.875,1.385,1.385,0,0,0,.553.049c.006-.008-.04,0-.141.029a.881.881,0,0,0-.258.173.148.148,0,0,1-.034.035s-.03.047-.006.006l.155-.287c.1-.193.213-.377.307-.575.2-.39.39-.785.57-1.19.36-.81.7-1.637.995-2.491.6-1.7,1.093-3.464,1.534-5.251s.774-3.612,1.067-5.446c.3-1.814.532-3.722.695-5.465Z" transform="translate(-47.913 -181.541)" fill="#ff8b7b"/>
        <g id="Group_26" data-name="Group 26" transform="translate(22.109 33.033)">
          <path id="Path_46" data-name="Path 46" d="M91.355,218.162A37.509,37.509,0,0,1,88.5,225.54c-.837,1.745-1.518,3.058-1.518,3.058l-.993-.44L77.762,224.5c.624-4.434,1.639-9.258,6.527-11.4C87.361,211.748,91.858,215.1,91.355,218.162Z" transform="translate(-77.762 -212.789)" fill="#407bff"/>
          <path id="Path_47" data-name="Path 47" d="M91.355,218.162A37.509,37.509,0,0,1,88.5,225.54c-.837,1.745-1.518,3.058-1.518,3.058l-.993-.44L77.762,224.5c.624-4.434,1.639-9.258,6.527-11.4C87.361,211.748,91.858,215.1,91.355,218.162Z" transform="translate(-77.762 -212.789)" opacity="0.6"/>
        </g>
        <path id="Path_48" data-name="Path 48" d="M91.863,229.478c-.837,1.745-1.518,3.058-1.518,3.058l-.993-.44c.135-1.752.482-4.512,1.433-5.754A7.777,7.777,0,0,1,91.863,229.478Z" transform="translate(-59.021 -183.695)" opacity="0.3"/>
        <path id="Path_49" data-name="Path 49" d="M52.443,232.337l.655-4.777-5.361,1.759s.856,2.891,2.763,4.074Z" transform="translate(-46.929 -184.048)" fill="#ff8b7b"/>
        <path id="Path_50" data-name="Path 50" d="M50.335,221.813,46.6,223.861l.808,3.788,5.361-1.759Z" transform="translate(-46.598 -182.379)" fill="#ff8b7b"/>
        <path id="Path_51" data-name="Path 51" d="M192.289,384.872l4.93-3.534a.428.428,0,0,1,.565.048l3.358,3.5a.866.866,0,0,1-.144,1.284c-1.74,1.2-2.641,1.7-4.808,3.251-1.333.956-4.142,3.268-5.985,4.589-1.8,1.292-3.246-.43-2.6-1.144a15.659,15.659,0,0,0,4.141-7.195A1.413,1.413,0,0,1,192.289,384.872Z" transform="translate(-87.526 -228.707)" fill="#263238"/>
        <path id="Path_52" data-name="Path 52" d="M141.872,404.7h6.405a.53.53,0,0,1,.506.389l1.393,5.068a.8.8,0,0,1-.782,1.014c-2.257.021-3.327.011-6.144.011h-8.61c-2.341,0-2.83-2.367-1.862-2.581,4.342-.961,6.846-2.287,8.185-3.551A1.318,1.318,0,0,1,141.872,404.7Z" transform="translate(-71.503 -235.521)" fill="#263238"/>
        <g id="Group_28" data-name="Group 28" transform="translate(27.207 25.238)">
          <g id="Group_27" data-name="Group 27">
            <path id="Path_53" data-name="Path 53" d="M118.365,234.194c-4.037,1.277-12.614,3.986-20.907,6.612C82.986,212.16,85.05,210.641,85.05,210.641s3.341-1.908,6.818-3.5c.525-.241,1.057-.475,1.582-.7a69.791,69.791,0,0,1,9.492-3.008c.475-.128.951-.241,1.426-.355a66.693,66.693,0,0,1,7.825-1.284c.312,3.966.624,7.321.965,10.237.44,3.8.915,6.846,1.447,9.478A82.793,82.793,0,0,0,118.365,234.194Z" transform="translate(-84.949 -201.802)" fill="#407bff"/>
            <path id="Path_54" data-name="Path 54" d="M118.365,234.194c-4.037,1.277-12.614,3.986-20.907,6.612C82.986,212.16,85.05,210.641,85.05,210.641s3.341-1.908,6.818-3.5c.525-.241,1.057-.475,1.582-.7a69.791,69.791,0,0,1,9.492-3.008c.475-.128.951-.241,1.426-.355a66.693,66.693,0,0,1,7.825-1.284c.312,3.966.624,7.321.965,10.237.44,3.8.915,6.846,1.447,9.478A82.793,82.793,0,0,0,118.365,234.194Z" transform="translate(-84.949 -201.802)" opacity="0.6"/>
          </g>
          <path id="Path_55" data-name="Path 55" d="M125.313,224.71c-2.008-2.852-3.93-9.442-3.434-11.918l1.986,2.44C124.306,219.035,124.781,222.078,125.313,224.71Z" transform="translate(-95.657 -204.995)" opacity="0.3"/>
        </g>
        <path id="Path_56" data-name="Path 56" d="M103.625,216.359s5.277-1.141,6.971,1.145c2.325-2.286,1.505-11.241.382-14.433a13.882,13.882,0,0,0-2.606.739l-3.722,5.758Z" transform="translate(-63.168 -176.933)" fill="#fff"/>
        <path id="Path_57" data-name="Path 57" d="M100.3,217.894s-3.566.8-3.921,3.692c-4.949-3.692-4.619-9.106-3.5-12.3a12.683,12.683,0,0,1,2.668-.935l3.723,4.1Z" transform="translate(-59.846 -178.467)" fill="#fff"/>
        <g id="Group_29" data-name="Group 29" transform="translate(35.45 19.506)">
          <path id="Path_58" data-name="Path 58" d="M102.792,195.05c.678,2.609,1.788,5.192,3.529,6.044,0,0,1.639,4.694-4.747,12.549-6.681-4.761-4.747-9.545-4.747-9.545,3.149-1.891,2.262-4.39.917-6.576l1.852-2.97A1.758,1.758,0,0,1,102.792,195.05Z" transform="translate(-96.567 -193.723)" fill="#ff8b7b"/>
          <path id="Path_59" data-name="Path 59" d="M103.789,195.048a1.762,1.762,0,0,0-3.2-.5l-.6.95v.007c.05.631.079,1.149.071,1.419-.057,1.844,2.533,1.759,4.64.873A18.745,18.745,0,0,1,103.789,195.048Z" transform="translate(-97.563 -193.723)" opacity="0.2"/>
        </g>
        <path id="Path_60" data-name="Path 60" d="M87.062,181.481c1.841,5.033,2.512,7.2,5.885,9.062,5.073,2.8,10.852-.563,10.551-6.044-.27-4.934-3.235-12.336-8.86-12.881A7.308,7.308,0,0,0,87.062,181.481Z" transform="translate(-58.221 -167.782)" fill="#ff8b7b"/>
        <path id="Path_61" data-name="Path 61" d="M99.209,173.539c-1.727-1.669-3.532-3.605-7.021-3.228a7.372,7.372,0,0,0-5.363,2.743l-3.307,7.229s2.052,9.308,5.437,4.959c1.947-2.5,2.027-6.3,1.267-9.135a23.149,23.149,0,0,0,3.917-.911,4.351,4.351,0,0,0,4.612-.609c.282-.26.491-.465.64-.627l.116-.137C99.913,173.332,99.591,173.385,99.209,173.539Zm-4.467,1.477a35.7,35.7,0,0,1,3.687-.985A3.633,3.633,0,0,1,94.742,175.016Z" transform="translate(-57.325 -167.4)" fill="#263238"/>
        <path id="Path_62" data-name="Path 62" d="M87.5,191.624a3.916,3.916,0,0,0,2.388,1.8c1.332.334,1.962-.865,1.562-2.1-.361-1.114-1.488-2.631-2.811-2.416A1.759,1.759,0,0,0,87.5,191.624Z" transform="translate(-58.401 -172.81)" fill="#ff8b7b"/>
        <g id="Group_30" data-name="Group 30" transform="translate(39.684 59.401)">
          <path id="Path_63" data-name="Path 63" d="M102.567,254.8s-.737,42.848,4.889,58.327c5.394,14.84,21.474,40.351,21.474,40.351l9.318-.239s-14.8-32.3-17.233-45.078c-4.027-21.191-3.138-58.206-3.138-58.206Z" transform="translate(-102.535 -249.958)" fill="#407bff"/>
          <path id="Path_64" data-name="Path 64" d="M114.38,258.467l2.5-7.1,4.434-1.4s-.4,16.835.568,34.294C117.866,276.536,114.379,262.348,114.38,258.467Z" transform="translate(-105.977 -249.959)" opacity="0.3"/>
        </g>
        <path id="Path_65" data-name="Path 65" d="M137.184,394.995,148.7,394.7l-.666-3.537-12.569.6Z" transform="translate(-72.419 -231.587)" fill="#263238"/>
        <path id="Path_66" data-name="Path 66" d="M109.044,252.695s14.539,33.269,23.939,52.2c7.593,15.292,31.216,35.812,31.216,35.812l6.474-4.494s-17.772-24.3-23.014-34.671c-16.779-33.193-12.642-46.869-22.292-54.082Z" transform="translate(-64.743 -189.831)" fill="#407bff"/>
        <path id="Path_67" data-name="Path 67" d="M186.275,378.345l7.607-5.411-1.728-3.323-8.356,6.323Z" transform="translate(-86.464 -225.325)" fill="#263238"/>
        <path id="Path_68" data-name="Path 68" d="M122.994,245.563l1.534,1.572c.119.122-.006.325-.248.4l-21.926,6.938c-.189.06-.374.017-.424-.1l-.78-1.812c-.054-.125.074-.287.28-.352l21.172-6.7A.4.4,0,0,1,122.994,245.563Z" transform="translate(-62.446 -189.257)" fill="#263238"/>
        <path id="Path_69" data-name="Path 69" d="M128.46,249.055l.567-.18c.113-.036.18-.122.15-.19l-1.035-2.347c-.03-.069-.148-.1-.26-.06l-.567.18c-.113.035-.181.121-.15.189l1.036,2.348C128.23,249.063,128.347,249.091,128.46,249.055Z" transform="translate(-70.006 -189.483)" fill="#407bff"/>
        <path id="Path_70" data-name="Path 70" d="M104.656,256.586l.567-.179c.113-.035.18-.121.15-.19l-1.036-2.348c-.03-.069-.148-.1-.26-.06l-.567.179c-.113.035-.181.121-.15.189l1.035,2.347C104.426,256.595,104.543,256.622,104.656,256.586Z" transform="translate(-63.089 -191.671)" fill="#407bff"/>
        <path id="Path_71" data-name="Path 71" d="M116.558,252.82l.568-.18c.113-.035.18-.121.15-.19L116.24,250.1c-.031-.069-.148-.1-.261-.06l-.567.179c-.113.036-.18.121-.15.19l1.036,2.347C116.328,252.829,116.445,252.857,116.558,252.82Z" transform="translate(-66.548 -190.577)" fill="#407bff"/>
        <path id="Path_72" data-name="Path 72" d="M99.672,183.606c.124.417.446.69.719.608s.393-.485.268-.9-.446-.689-.719-.608S99.548,183.188,99.672,183.606Z" transform="translate(-62.005 -171.01)" fill="#263238"/>
        <path id="Path_73" data-name="Path 73" d="M106.322,181.626c.125.417.446.69.719.608s.394-.485.27-.9-.446-.689-.719-.608S106.2,181.208,106.322,181.626Z" transform="translate(-63.938 -170.435)" fill="#263238"/>
        <path id="Path_74" data-name="Path 74" d="M106.561,180.571l.917-.587S107.2,180.92,106.561,180.571Z" transform="translate(-64.021 -170.224)" fill="#263238"/>
        <path id="Path_75" data-name="Path 75" d="M104.685,183.526a11.606,11.606,0,0,0,2.281,2.221,1.871,1.871,0,0,1-1.4.722Z" transform="translate(-63.476 -171.253)" fill="#ff5652"/>
        <path id="Path_76" data-name="Path 76" d="M102.529,190.593a.128.128,0,0,0-.118-.221,3.456,3.456,0,0,1-3.08-.49.128.128,0,0,0-.18.015.127.127,0,0,0,.015.179,3.649,3.649,0,0,0,3.319.541A.127.127,0,0,0,102.529,190.593Z" transform="translate(-61.859 -173.091)" fill="#263238"/>
        <path id="Path_77" data-name="Path 77" d="M97,181.588a.259.259,0,0,0,.077-.108,2.036,2.036,0,0,1,1.327-1.285.256.256,0,1,0-.111-.5A2.538,2.538,0,0,0,96.6,181.3a.256.256,0,0,0,.4.287Z" transform="translate(-61.123 -170.139)" fill="#263238"/>
        <path id="Path_78" data-name="Path 78" d="M107.336,178.067a.232.232,0,0,0,.013-.046.256.256,0,0,0-.2-.3,2.54,2.54,0,0,0-2.254.608.256.256,0,0,0,.367.356,2.027,2.027,0,0,1,1.79-.462A.256.256,0,0,0,107.336,178.067Z" transform="translate(-63.516 -169.552)" fill="#263238"/>
        <path id="Path_79" data-name="Path 79" d="M126.466,208.857c.845.634,1.555,1.223,2.295,1.864s1.44,1.278,2.139,1.937q2.078,2,3.977,4.193a46.3,46.3,0,0,1,3.539,4.631c.282.4.53.826.8,1.239s.523.831.759,1.267.48.836.73,1.321l.375.787.306.795a18.739,18.739,0,0,1,.9,6.242,33.933,33.933,0,0,1-.631,5.859,55.9,55.9,0,0,1-1.4,5.568,52.944,52.944,0,0,1-2,5.353l-2.565-.948c.439-1.7.86-3.493,1.173-5.255a52.283,52.283,0,0,0,.761-5.292,34.47,34.47,0,0,0,.116-5.18,20.469,20.469,0,0,0-.3-2.44,13.119,13.119,0,0,0-.646-2.188l-.214-.489-.245-.45c-.188-.326-.45-.714-.67-1.068s-.469-.721-.722-1.072-.487-.712-.759-1.053c-1.035-1.394-2.2-2.708-3.368-4.022s-2.44-2.548-3.737-3.753c-.641-.608-1.3-1.2-1.962-1.784-.658-.565-1.364-1.164-1.979-1.659Z" transform="translate(-68.838 -178.614)" fill="#ff8b7b"/>
        <path id="Path_80" data-name="Path 80" d="M140.329,263l-3.886,2.855,5,2.625s1.481-2.628,1-4.821Z" transform="translate(-72.704 -194.346)" fill="#ff8b7b"/>
        <path id="Path_81" data-name="Path 81" d="M134.7,271.609l4.072,1.256,2.156-3.217-5-2.624Z" transform="translate(-72.199 -195.515)" fill="#ff8b7b"/>
        <g id="Group_31" data-name="Group 31" transform="translate(50.173 25.236)">
          <path id="Path_82" data-name="Path 82" d="M121.6,201.8c2.717-.123,8.057,6.554,8.057,6.554l-5.544,7.843s-6.23-4.953-6.713-8.421C116.99,204.833,118.14,201.958,121.6,201.8Z" transform="translate(-117.321 -201.8)" fill="#407bff"/>
          <path id="Path_83" data-name="Path 83" d="M121.6,201.8c2.717-.123,8.057,6.554,8.057,6.554l-5.544,7.843s-6.23-4.953-6.713-8.421C116.99,204.833,118.14,201.958,121.6,201.8Z" transform="translate(-117.321 -201.8)" opacity="0.6"/>
        </g>
        <path id="Path_84" data-name="Path 84" d="M191.35,388.838a.705.705,0,0,1-.087,0,.729.729,0,0,1-.568-.428.435.435,0,0,1,0-.441c.345-.6,2.294-.693,2.515-.7a.127.127,0,0,1,.1.211C192.856,387.993,192.018,388.838,191.35,388.838Zm1.558-1.3c-.779.061-1.813.241-1.995.555a.182.182,0,0,0,.008.194.481.481,0,0,0,.371.294C191.66,388.623,192.253,388.236,192.907,387.536Z" transform="translate(-88.45 -230.453)" fill="#407bff"/>
        <path id="Path_85" data-name="Path 85" d="M193.177,386.972c-.656,0-1.941-.36-2.178-.884a.445.445,0,0,1,.141-.54.665.665,0,0,1,.54-.177c.78.081,1.692,1.339,1.73,1.393a.128.128,0,0,1,.013.126.126.126,0,0,1-.1.075C193.277,386.97,193.228,386.972,193.177,386.972Zm-1.576-1.349a.41.41,0,0,0-.287.113c-.121.111-.107.19-.082.247.156.344,1.163.7,1.82.733-.326-.4-.933-1.043-1.4-1.09Z" transform="translate(-88.545 -229.903)" fill="#407bff"/>
        <path id="Path_86" data-name="Path 86" d="M141.138,405.637a2.135,2.135,0,0,1-1.251-.3.8.8,0,0,1-.324-.616.367.367,0,0,1,.16-.348c.582-.393,2.762.6,3.194.8a.127.127,0,0,1-.027.239A8.512,8.512,0,0,1,141.138,405.637Zm-1.021-1.1a.463.463,0,0,0-.251.054.12.12,0,0,0-.049.122.542.542,0,0,0,.224.425,3.556,3.556,0,0,0,2.408.111A7.945,7.945,0,0,0,140.117,404.532Z" transform="translate(-73.611 -235.399)" fill="#407bff"/>
        <path id="Path_87" data-name="Path 87" d="M143.333,404.89a.128.128,0,0,1-.048-.01c-.723-.3-2.181-1.465-2.1-2.069.018-.133.109-.3.438-.338,1.275-.15,1.812,2.162,1.835,2.26a.128.128,0,0,1-.042.126A.13.13,0,0,1,143.333,404.89Zm-1.593-2.168c-.028,0-.057,0-.087,0-.134.016-.206.056-.215.118-.048.35.961,1.274,1.7,1.678C142.968,403.966,142.507,402.722,141.74,402.722Z" transform="translate(-74.081 -234.871)" fill="#407bff"/>
        <path id="Path_88" data-name="Path 88" d="M99.911,182.551l.917-.587S100.547,182.9,99.911,182.551Z" transform="translate(-62.089 -170.8)" fill="#263238"/>
      </g>
    </g>
    <g id="Account" transform="translate(107.085 109.666)">
      <g id="Group_42" data-name="Group 42">
        <g id="Group_33" data-name="Group 33">
          <path id="Path_89" data-name="Path 89" d="M243.076,109.666h-103.1a8.06,8.06,0,0,0-8.1,8.513l9.665,200.464a9.055,9.055,0,0,0,8.923,8.513h103.1a8.06,8.06,0,0,0,8.1-8.513L252,118.179A9.055,9.055,0,0,0,243.076,109.666Z" transform="translate(-131.86 -109.666)"/>
          <path id="Path_90" data-name="Path 90" d="M248.41,109.666h-103.1a8.059,8.059,0,0,0-8.1,8.513l9.665,200.464a9.055,9.055,0,0,0,8.923,8.513H258.9a8.059,8.059,0,0,0,8.1-8.513l-9.664-200.464A9.056,9.056,0,0,0,248.41,109.666Z" transform="translate(-133.41 -109.666)" fill="#263238"/>
          <path id="Path_91" data-name="Path 91" d="M157.845,323.806a3.05,3.05,0,0,1-2.974-2.838L145.207,120.5a2.714,2.714,0,0,1,2.7-2.838h103.1a3.052,3.052,0,0,1,2.975,2.838l9.664,200.464a2.713,2.713,0,0,1-2.7,2.838Z" transform="translate(-135.737 -111.991)" fill="#407bff"/>
          <path id="Path_92" data-name="Path 92" d="M158.359,322.968a1.545,1.545,0,0,1-1.487-1.419l-9.665-200.464a1.374,1.374,0,0,1,1.351-1.419h103.1a1.547,1.547,0,0,1,1.488,1.419l9.664,200.464a1.374,1.374,0,0,1-1.351,1.419Z" transform="translate(-136.319 -112.572)" opacity="0.1"/>
        </g>
        <g id="Group_37" data-name="Group 37" transform="translate(21.876 67.744)">
          <g id="Group_35" data-name="Group 35" transform="translate(7.148 95.894)" opacity="0.3">
            <path id="Path_93" data-name="Path 93" d="M196.907,375.537H176.452a2.21,2.21,0,0,1-2.182-2.081l-1.5-31.012a2,2,0,0,1,2.014-2.116h20.455a2.21,2.21,0,0,1,2.182,2.082l1.495,31.011a2,2,0,0,1-2.013,2.115Zm-22.119-34.5a1.292,1.292,0,0,0-1.305,1.373l1.5,31.011a1.492,1.492,0,0,0,1.473,1.406h20.455a1.292,1.292,0,0,0,1.305-1.372l-1.5-31.012a1.493,1.493,0,0,0-1.473-1.406Z" transform="translate(-172.772 -340.328)" fill="#fafafa"/>
            <g id="Group_34" data-name="Group 34" transform="translate(2.623 7.23)">
              <path id="Path_94" data-name="Path 94" d="M196.053,351.228h-19.23a.355.355,0,0,1,0-.709h19.23a.355.355,0,1,1,0,.709Z" transform="translate(-176.469 -350.519)" fill="#fafafa"/>
              <path id="Path_95" data-name="Path 95" d="M196.326,356.878H177.1a.355.355,0,1,1,0-.709h19.229a.355.355,0,1,1,0,.709Z" transform="translate(-176.548 -352.161)" fill="#fafafa"/>
              <path id="Path_96" data-name="Path 96" d="M196.6,362.527h-19.23a.355.355,0,0,1,0-.709H196.6a.355.355,0,1,1,0,.709Z" transform="translate(-176.627 -353.802)" fill="#fafafa"/>
              <path id="Path_97" data-name="Path 97" d="M196.871,368.177H177.642a.355.355,0,1,1,0-.709h19.229a.355.355,0,1,1,0,.709Z" transform="translate(-176.707 -355.444)" fill="#fafafa"/>
              <path id="Path_98" data-name="Path 98" d="M197.143,373.827H177.914a.355.355,0,1,1,0-.709h19.229a.355.355,0,1,1,0,.709Z" transform="translate(-176.786 -357.086)" fill="#fafafa"/>
              <path id="Path_99" data-name="Path 99" d="M193.471,379.477H178.186a.355.355,0,1,1,0-.709h15.285a.355.355,0,1,1,0,.709Z" transform="translate(-176.865 -358.727)" fill="#fafafa"/>
            </g>
          </g>
          <g id="Group_36" data-name="Group 36" opacity="0.3">
            <path id="Path_100" data-name="Path 100" d="M206.851,222.52l-14.025,2.242a16.039,16.039,0,0,0-2.1-3.742,10.121,10.121,0,0,0-2.932-2.109l.53,10.992q11.7,3.081,15.739,6.5a15.8,15.8,0,0,1,5.692,11.672,15.472,15.472,0,0,1-1.476,7.6,17.269,17.269,0,0,1-4.432,5.778,17.85,17.85,0,0,1-5.936,3.365,29.268,29.268,0,0,1-7.843,1.235l.094,1.932a2.618,2.618,0,0,1-2.64,2.774h0a2.941,2.941,0,0,1-2.907-2.774l-.094-1.932a35.986,35.986,0,0,1-9.148-1.8,19.528,19.528,0,0,1-6.178-3.628,19.07,19.07,0,0,1-4.135-5,24.4,24.4,0,0,1-2.364-6.478l15.263-1.786a15.148,15.148,0,0,0,2.1,5.434,10.313,10.313,0,0,0,3.961,2.963l-.647-13.425a74.616,74.616,0,0,1-11.064-3.689,15.468,15.468,0,0,1-5.807-5,15.068,15.068,0,0,1-2.76-8.383,14.361,14.361,0,0,1,4.185-11.31q4.511-4.543,13.834-5.038l-.048-.988a2.618,2.618,0,0,1,2.64-2.773h0a2.941,2.941,0,0,1,2.907,2.773l.048.988q8.535.532,13.207,4.027A17.226,17.226,0,0,1,206.851,222.52Zm-24.612-3.8a6.689,6.689,0,0,0-3.286,1.986,4.146,4.146,0,0,0-.815,2.786,4.827,4.827,0,0,0,1.1,2.921,7.581,7.581,0,0,0,3.467,2.076Zm7.35,37.422a8.316,8.316,0,0,0,4.616-2.382,5.161,5.161,0,0,0,1.322-3.716,5.25,5.25,0,0,0-1.429-3.3,12.335,12.335,0,0,0-5.1-2.8Z" transform="translate(-162.696 -205.157)" fill="#fafafa"/>
          </g>
        </g>
        <g id="Group_41" data-name="Group 41" transform="translate(32.899 26.17)">
          <path id="Path_101" data-name="Path 101" d="M248.442,146.555H178.234l6.844,141.964a22.979,22.979,0,0,0,22.712,21.668H278l-6.844-141.964A22.979,22.979,0,0,0,248.442,146.555Z" transform="translate(-178.234 -146.555)" opacity="0.2"/>
          <g id="Group_38" data-name="Group 38">
            <path id="Path_102" data-name="Path 102" d="M265.646,146.555H178.234a22.978,22.978,0,0,1,22.712,21.668l5.571,115.558a22.979,22.979,0,0,0,22.712,21.667h44.078a20.455,20.455,0,0,0,20.622-21.667l-5.571-115.558A22.978,22.978,0,0,0,265.646,146.555Z" transform="translate(-178.234 -146.555)" fill="#fafafa"/>
            <path id="Path_103" data-name="Path 103" d="M270.738,339.987a20.456,20.456,0,0,1-20.623,21.667h87.412a20.456,20.456,0,0,0,20.623-21.667Z" transform="translate(-199.121 -202.761)" fill="#e6e6e6"/>
          </g>
          <g id="Group_39" data-name="Group 39" transform="translate(36.251 68.51)">
            <path id="Path_104" data-name="Path 104" d="M292.8,246.347H231.023a1.713,1.713,0,0,1-1.688-1.61h0a1.525,1.525,0,0,1,1.533-1.611h61.78a1.713,1.713,0,0,1,1.688,1.611h0A1.524,1.524,0,0,1,292.8,246.347Z" transform="translate(-229.333 -243.126)" fill="#407bff"/>
            <path id="Path_105" data-name="Path 105" d="M293.487,260.521H231.706a1.714,1.714,0,0,1-1.688-1.61h0a1.525,1.525,0,0,1,1.533-1.61h61.78a1.714,1.714,0,0,1,1.688,1.61h0A1.525,1.525,0,0,1,293.487,260.521Z" transform="translate(-229.532 -247.245)" fill="#407bff"/>
            <path id="Path_106" data-name="Path 106" d="M294.17,274.694H232.39a1.712,1.712,0,0,1-1.688-1.61h0a1.523,1.523,0,0,1,1.532-1.61h61.78a1.713,1.713,0,0,1,1.688,1.61h0A1.525,1.525,0,0,1,294.17,274.694Z" transform="translate(-229.731 -251.363)" fill="#407bff"/>
            <path id="Path_107" data-name="Path 107" d="M294.854,288.867H233.073a1.712,1.712,0,0,1-1.688-1.61h0a1.525,1.525,0,0,1,1.532-1.611H294.7a1.713,1.713,0,0,1,1.688,1.611h0A1.524,1.524,0,0,1,294.854,288.867Z" transform="translate(-229.929 -255.481)" fill="#407bff"/>
            <path id="Path_108" data-name="Path 108" d="M270.976,303.04h-37.22a1.713,1.713,0,0,1-1.688-1.61h0a1.525,1.525,0,0,1,1.533-1.61H270.82a1.713,1.713,0,0,1,1.688,1.61h0A1.524,1.524,0,0,1,270.976,303.04Z" transform="translate(-230.127 -259.6)" fill="#407bff"/>
          </g>
          <g id="Group_40" data-name="Group 40" transform="translate(47.726 17.59)">
            <path id="Path_109" data-name="Path 109" d="M284.347,190.757a18.322,18.322,0,0,1-18.473,19.409,20.582,20.582,0,0,1-20.343-19.409A18.322,18.322,0,0,1,264,171.349,20.582,20.582,0,0,1,284.347,190.757Z" transform="translate(-245.508 -171.349)" fill="#407bff"/>
            <path id="Path_110" data-name="Path 110" d="M282.347,192.143a15.406,15.406,0,0,1-1.568,7.629,15.1,15.1,0,0,1-13.678,8.389,16.944,16.944,0,0,1-14.487-8.389,16.5,16.5,0,0,1-2.3-7.629,15.12,15.12,0,0,1,15.246-16.018A16.985,16.985,0,0,1,282.347,192.143Z" transform="translate(-246.898 -172.737)" fill="#fff"/>
            <path id="Path_111" data-name="Path 111" d="M281.73,207.711a15.1,15.1,0,0,1-13.678,8.389,16.944,16.944,0,0,1-14.487-8.389,24.291,24.291,0,0,1,13.877-4.266A26.271,26.271,0,0,1,281.73,207.711Z" transform="translate(-247.849 -180.675)" fill="#407bff" opacity="0.4"/>
            <path id="Path_112" data-name="Path 112" d="M276.734,188.056a6.736,6.736,0,0,1-6.791,7.135,7.567,7.567,0,0,1-7.479-7.135,6.736,6.736,0,0,1,6.791-7.135A7.567,7.567,0,0,1,276.734,188.056Z" transform="translate(-250.432 -174.13)" fill="#407bff" opacity="0.4"/>
          </g>
        </g>
      </g>
    </g>
    <g id="Character_Male" data-name="Character Male" transform="translate(207.969 110.616)">
      <g id="Group_47" data-name="Group 47">
        <g id="Group_43" data-name="Group 43" transform="translate(52.936 199.151)">
          <path id="Path_113" data-name="Path 113" d="M354.413,403.794H349.2l-.519-12.069h5.212Z" transform="translate(-348.683 -391.725)" fill="#b55b52"/>
          <path id="Path_114" data-name="Path 114" d="M348.685,391.729l.267,6.221h5.214l-.267-6.221Z" transform="translate(-348.683 -391.726)" opacity="0.2"/>
        </g>
        <g id="Group_44" data-name="Group 44" transform="translate(91.841 186.413)">
          <path id="Path_115" data-name="Path 115" d="M414.709,384.435l-4.955,1.614-6.23-10.664,4.956-1.615Z" transform="translate(-403.523 -373.771)" fill="#b55b52"/>
          <path id="Path_116" data-name="Path 116" d="M408.482,373.773l-4.957,1.616,3.214,5.5,4.957-1.616Z" transform="translate(-403.524 -373.771)" opacity="0.2"/>
        </g>
        <path id="Path_117" data-name="Path 117" d="M379.073,162.917c.648.79,1.2,1.5,1.754,2.262s1.094,1.512,1.625,2.279c1.053,1.539,2.058,3.113,3,4.738a53.335,53.335,0,0,1,4.781,10.44l.116.351.06.186.078.29.14.582.079.531a10.6,10.6,0,0,1,.075,1.924,19.138,19.138,0,0,1-.47,3.217,37.259,37.259,0,0,1-1.781,5.542,64.284,64.284,0,0,1-5.073,9.9l-3.526-1.7c1.063-3.322,2.1-6.733,2.907-10.044a39.652,39.652,0,0,0,.918-4.85,12.186,12.186,0,0,0,.081-2.122,3.78,3.78,0,0,0-.1-.753l-.033-.131a.3.3,0,0,1-.037-.065l-.011-.033-.055-.131-.119-.277-.472-1.111-.533-1.109c-.352-.739-.744-1.478-1.137-2.213-.805-1.467-1.682-2.921-2.586-4.363s-1.874-2.863-2.852-4.274c-.959-1.4-2.025-2.833-2.984-4.118Z" transform="translate(-302.789 -126.089)" fill="#b55b52"/>
        <path id="Path_118" data-name="Path 118" d="M382.395,218.754l-2.04,4.508h5.829s.928-3.42-1.185-4.8Z" transform="translate(-304.95 -142.229)" fill="#b55b52"/>
        <path id="Path_119" data-name="Path 119" d="M381.038,230.3l5.408-1.047-.262-4.019h-5.829Z" transform="translate(-304.95 -144.195)" fill="#b55b52"/>
        <path id="Path_120" data-name="Path 120" d="M344.816,130.381c0,.421-.223.761-.5.761s-.5-.341-.5-.761.223-.761.5-.761S344.816,129.961,344.816,130.381Z" transform="translate(-294.334 -116.414)" fill="#263238"/>
        <path id="Path_121" data-name="Path 121" d="M344.142,131.766a15.054,15.054,0,0,1-2.008,3.6,2.424,2.424,0,0,0,2.008.377Z" transform="translate(-293.844 -117.037)" fill="#a02724"/>
        <path id="Path_122" data-name="Path 122" d="M346.409,127.023a.242.242,0,0,1-.144-.047,1.967,1.967,0,0,0-1.754-.322.247.247,0,0,1-.177-.46,2.447,2.447,0,0,1,2.221.382.247.247,0,0,1-.145.448Z" transform="translate(-294.437 -115.385)" fill="#263238"/>
        <path id="Path_123" data-name="Path 123" d="M359.542,137.524c-.748,3.813-1.494,10.8,1.173,13.344,0,0-1.042,3.868-8.126,3.868-7.79,0-3.723-3.867-3.723-3.867,4.252-1.016,4.142-4.17,3.4-7.133Z" transform="translate(-295.492 -118.71)" fill="#b55b52"/>
        <path id="Path_124" data-name="Path 124" d="M361.795,156.713c.558-1.224,1.173-2.626-.1-3.064-1.4-.483-9.057-.975-11.7-.069a2.724,2.724,0,0,0-1.893,3.39Z" transform="translate(-295.551 -123.229)" fill="#263238"/>
        <path id="Path_125" data-name="Path 125" d="M410.159,392.321c-.386.37-.817.668-1.143.617a.5.5,0,0,1-.4-.426.572.572,0,0,1,.081-.475c.426-.658,2.148-.938,2.221-.95a.124.124,0,0,1,.123.189A6.552,6.552,0,0,1,410.159,392.321ZM409,392.054a.643.643,0,0,0-.1.116.331.331,0,0,0-.05.277c.06.224.166.241.2.247.363.057,1.136-.675,1.608-1.309A4.062,4.062,0,0,0,409,392.054Z" transform="translate(-313.155 -192.388)" fill="#407bff"/>
        <path id="Path_126" data-name="Path 126" d="M410.962,390.907a.14.14,0,0,1-.053.03c-.592.162-2.135.057-2.457-.439a.4.4,0,0,1,.061-.506.678.678,0,0,1,.489-.249c.78-.06,1.91.94,1.957.983a.123.123,0,0,1,.038.121A.125.125,0,0,1,410.962,390.907Zm-2.221-.8a.349.349,0,0,0-.038.04c-.1.126-.062.188-.045.216.19.292,1.266.457,1.935.38a2.98,2.98,0,0,0-1.573-.755A.439.439,0,0,0,408.742,390.108Z" transform="translate(-313.096 -191.998)" fill="#407bff"/>
        <path id="Path_127" data-name="Path 127" d="M345.8,408.6c-.669,0-1.315-.093-1.531-.393a.469.469,0,0,1,.01-.54.618.618,0,0,1,.392-.288c.867-.236,2.689.8,2.766.846a.124.124,0,0,1-.038.228A9.163,9.163,0,0,1,345.8,408.6Zm-.826-1.011a.929.929,0,0,0-.239.028.373.373,0,0,0-.241.173c-.088.153-.056.229-.025.273.243.336,1.561.344,2.529.207A5.584,5.584,0,0,0,344.978,407.59Z" transform="translate(-294.442 -197.113)" fill="#407bff"/>
        <path id="Path_128" data-name="Path 128" d="M347.931,407.945a.126.126,0,0,1-.05-.011c-.629-.282-1.875-1.409-1.781-2,.023-.139.121-.311.46-.345a.907.907,0,0,1,.685.212,3.519,3.519,0,0,1,.809,2.008.122.122,0,0,1-.051.111A.12.12,0,0,1,347.931,407.945Zm-1.271-2.113c-.025,0-.05,0-.074,0-.222.023-.236.111-.241.14-.057.353.79,1.239,1.432,1.625a2.906,2.906,0,0,0-.688-1.608A.656.656,0,0,0,346.66,405.832Z" transform="translate(-294.995 -196.602)" fill="#407bff"/>
        <path id="Path_129" data-name="Path 129" d="M409.925,388.556l4.231-4.047a.453.453,0,0,1,.567-.05l3.946,2.635a.767.767,0,0,1,.089,1.2c-1.5,1.388-2.3,1.988-4.163,3.767-1.145,1.1-4.569,4.825-6.151,6.337-1.546,1.479-3.282.147-2.77-.614,2.294-3.41,3.73-6.686,3.861-8.41A1.255,1.255,0,0,1,409.925,388.556Z" transform="translate(-312.281 -190.441)" fill="#263238"/>
        <path id="Path_130" data-name="Path 130" d="M344.307,407.887H350a.454.454,0,0,1,.443.355l1.03,4.633a.759.759,0,0,1-.751.927c-2.053-.035-5.019-.155-7.6-.155-3.017,0-5.623.165-9.162.165-2.14,0-2.733-2.164-1.837-2.359,4.077-.892,7.406-.988,10.929-3.16A2.413,2.413,0,0,1,344.307,407.887Z" transform="translate(-290.818 -197.271)" fill="#263238"/>
        <path id="Path_131" data-name="Path 131" d="M323.73,171.188c-2.067,3.046-4.2,5.9-6.5,8.719a97.955,97.955,0,0,1-7.381,8.14l-1.026.966-.256.241-.183.167-.261.224a7.155,7.155,0,0,1-1.068.717,9.564,9.564,0,0,1-3.868,1.082,21.632,21.632,0,0,1-6.142-.506,46.57,46.57,0,0,1-10.535-3.7l1.3-3.691a83.357,83.357,0,0,0,10.066,1.374,18.416,18.416,0,0,0,4.446-.187,2.845,2.845,0,0,0,1.18-.458c.031-.027.026-.044.018-.045a.036.036,0,0,0-.016,0s-.013.011,0-.006l.052-.058.211-.231.84-.924c2.217-2.528,4.364-5.221,6.452-7.975,2.09-2.737,4.175-5.575,6.169-8.33Z" transform="translate(-277.68 -127.19)" fill="#b55b52"/>
        <g id="Group_45" data-name="Group 45" transform="translate(67.734 33.176)">
          <path id="Path_132" data-name="Path 132" d="M376.363,157.929c4.884,1.119,10.487,14.437,10.487,14.437l-9.811,6.725a82.486,82.486,0,0,1-6.48-11.017C367.664,161.979,371.369,156.784,376.363,157.929Z" transform="translate(-369.542 -157.769)" fill="#407bff"/>
          <path id="Path_133" data-name="Path 133" d="M374.223,169.964l4.64,12.35-.461.319s-2.008-2.817-4.179-6.619Z" transform="translate(-370.902 -161.313)" opacity="0.3"/>
        </g>
        <g id="Group_46" data-name="Group 46" transform="translate(42.798 31.983)">
          <path id="Path_134" data-name="Path 134" d="M336.952,157.708s-5.548,6.266-.309,45.047h27.876c.192-4.279-2.5-25.153,1.631-45.315a72.8,72.8,0,0,0-9.332-1.178,102.293,102.293,0,0,0-11.85,0A52.243,52.243,0,0,0,336.952,157.708Z" transform="translate(-334.392 -156.088)" fill="#407bff"/>
          <path id="Path_135" data-name="Path 135" d="M340.047,174.176a24.734,24.734,0,0,1-5.505,11.933c-.114-2.5-.156-4.738-.149-6.746Z" transform="translate(-334.392 -161.344)" opacity="0.3"/>
        </g>
        <path id="Path_136" data-name="Path 136" d="M338.048,162.56c.687,4.935-9.036,17.542-9.036,17.542l-9.77-6.725s2.708-6.947,7.272-11.5C331.724,156.679,337.3,157.189,338.048,162.56Z" transform="translate(-287.192 -124.731)" fill="#407bff"/>
        <path id="Path_137" data-name="Path 137" d="M286.083,189.35l-3.821-3.955-4.079,5.261s3.105,3,6.8,2.15Z" transform="translate(-275.262 -132.62)" fill="#b55b52"/>
        <path id="Path_138" data-name="Path 138" d="M275.811,182.328l-1.746,5.521,2.922,1.916,4.079-5.261Z" transform="translate(-274.065 -131.729)" fill="#b55b52"/>
        <path id="Path_139" data-name="Path 139" d="M358.915,126.331c-.317,5.163-.24,8.2-2.848,10.85-3.922,3.987-10.3,1.622-11.527-3.531-1.109-4.639-.4-12.3,4.65-14.357A7.055,7.055,0,0,1,358.915,126.331Z" transform="translate(-294.412 -113.255)" fill="#b55b52"/>
        <path id="Path_140" data-name="Path 140" d="M359.944,113.307c1.592,1.465.917,3.094.089,3.4,2.572.532,2.952,2.582,1.6,6.907-1.3,4.142-4.425,9.7-8.333,10.038-5.872.512-7.591-5.607-7.63-11.679-3.325.2-1.891-2.745-5.967-2.062-3.522.589-2.218-2.179-5.229-3.385-3.5-1.4-2.794-6.776.467-5.236,0,0-1.514,1,.249,1.929s1.592-1.224,5.071-1.486,3.887,2.719,7.96.924C353.346,110.4,356.685,110.308,359.944,113.307Z" transform="translate(-290.943 -111.005)" fill="#263238"/>
        <path id="Path_141" data-name="Path 141" d="M368.572,118.586a2.036,2.036,0,0,1,2.26-.889c1.594.339,1.729,1.041,2.729.951s.636.974.636.974-.269-.8-1.476-.357-1.993-.648-2.512-.157S368.572,118.586,368.572,118.586Z" transform="translate(-301.526 -112.932)" fill="#263238"/>
        <path id="Path_142" data-name="Path 142" d="M353.394,130.46a5.844,5.844,0,0,1-1.825,3.281c-1.263,1.123-2.358.222-2.4-1.316-.034-1.384.583-3.635,2.037-4.174C352.645,127.721,353.651,128.932,353.394,130.46Z" transform="translate(-295.889 -115.979)" fill="#b55b52"/>
        <path id="Path_143" data-name="Path 143" d="M351.5,221.87s5.915,39.829,9.162,54.75c3.556,16.34,28.274,59.733,28.274,59.733l9.076-2.957S378.33,294.28,376.3,278.1c-2.2-17.558-6.81-56.231-6.81-56.231Z" transform="translate(-296.567 -143.219)" fill="#263238"/>
        <path id="Path_144" data-name="Path 144" d="M400.694,377.887c-.038.012,2.073,3.18,2.073,3.18l10.212-3.327-1.2-3.05Z" transform="translate(-310.86 -187.624)" fill="#407bff"/>
        <path id="Path_145" data-name="Path 145" d="M356.142,241.851c6.839,1.341,6.115,26.845,5.292,39.962-1.972-9.272-4.86-27.115-6.832-39.778A2.337,2.337,0,0,1,356.142,241.851Z" transform="translate(-297.467 -149.01)" opacity="0.3"/>
        <path id="Path_146" data-name="Path 146" d="M337.414,221.87s-.717,38.967-.151,54.859c.59,16.532,6.364,70.66,6.364,70.66h8.829s.324-53.162.717-69.4c.428-17.7,2.566-56.121,2.566-56.121Z" transform="translate(-292.365 -143.219)" fill="#263238"/>
        <path id="Path_147" data-name="Path 147" d="M343.927,393.843c-.04,0,.5,3.666.5,3.666h10.74l.29-3.272Z" transform="translate(-294.364 -193.19)" fill="#407bff"/>
      </g>
    </g>
  </g>
</svg>
