<svg xmlns="http://www.w3.org/2000/svg" width="225.138" height="247.1" viewBox="0 0 225.138 247.1">
  <g id="Image" transform="translate(-100.188 -125.594)">
    <g id="Login" transform="translate(100.188 125.594)">
      <g id="Group_69" data-name="Group 69">
        <path id="Path_264" data-name="Path 264" d="M227.522,326.834H106.8l-6.608-194.154H220.913Z" transform="translate(-100.188 -126.656)" fill="#407bff"/>
        <g id="Group_67" data-name="Group 67" transform="translate(6.025)">
          <path id="Path_265" data-name="Path 265" d="M234.608,319.748H113.882l-6.608-194.154H228Z" transform="translate(-107.274 -125.594)" fill="#407bff"/>
          <path id="Path_266" data-name="Path 266" d="M234.608,319.748H113.882l-6.608-194.154H228Z" transform="translate(-107.274 -125.594)" fill="#fff" opacity="0.3"/>
        </g>
        <g id="Group_68" data-name="Group 68" transform="translate(34.304 21.727)">
          <path id="Path_267" data-name="Path 267" d="M208.475,185.109a32.6,32.6,0,0,1-32.8,33.96,35.394,35.394,0,0,1-35.115-33.96,32.6,32.6,0,0,1,32.8-33.959A35.393,35.393,0,0,1,208.475,185.109Z" transform="translate(-140.536 -151.15)" fill="#407bff"/>
          <path id="Path_268" data-name="Path 268" d="M203.588,186.15a27.212,27.212,0,0,1-2.932,13.35,26.869,26.869,0,0,1-24.141,14.677,29.153,29.153,0,0,1-25.14-14.677,28.546,28.546,0,0,1-3.841-13.35,26.9,26.9,0,0,1,27.073-28.027A29.207,29.207,0,0,1,203.588,186.15Z" transform="translate(-141.582 -152.195)" fill="#fff"/>
          <path id="Path_269" data-name="Path 269" d="M201.336,205.476a26.869,26.869,0,0,1-24.141,14.677,29.153,29.153,0,0,1-25.14-14.677,42.99,42.99,0,0,1,24.386-7.465A45.437,45.437,0,0,1,201.336,205.476Z" transform="translate(-142.262 -158.171)" fill="#407bff" opacity="0.6"/>
          <path id="Path_270" data-name="Path 270" d="M190.4,177.61a11.985,11.985,0,0,1-12.06,12.485,13.011,13.011,0,0,1-12.909-12.485,11.986,11.986,0,0,1,12.06-12.484A13.012,13.012,0,0,1,190.4,177.61Z" transform="translate(-144.265 -153.244)" fill="#407bff" opacity="0.6"/>
        </g>
        <path id="Path_271" data-name="Path 271" d="M214.861,268.564H137.848l-.521-15.3H214.34Z" transform="translate(-105.752 -144.721)" fill="#fff"/>
        <path id="Path_272" data-name="Path 272" d="M215.956,300.737H138.943l-.521-15.3h77.014Z" transform="translate(-105.916 -149.541)" fill="#fff"/>
        <path id="Path_273" data-name="Path 273" d="M191.186,287.906l-18.558,2.524a1.294,1.294,0,0,0-1.12,1.535l2.437,12.436a1.49,1.49,0,0,0,1.648,1.161l18.559-2.524a1.293,1.293,0,0,0,1.12-1.536l-2.437-12.436A1.493,1.493,0,0,0,191.186,287.906Zm-5.332,12.6-3.36.457-.338-4.014a2.368,2.368,0,0,1-1.379-1.7,2.113,2.113,0,0,1,1.83-2.512,2.432,2.432,0,0,1,2.69,1.9,2.069,2.069,0,0,1-.66,1.974Z" transform="translate(-110.869 -149.91)" fill="#407bff"/>
        <path id="Path_274" data-name="Path 274" d="M189.488,285.315h0a1.319,1.319,0,0,1-1.461-1.03l-.239-1.217a7,7,0,0,0-7.328-5.577,5.986,5.986,0,0,0-5.5,7.136l.274,1.4a1.145,1.145,0,0,1-.993,1.364h0a1.32,1.32,0,0,1-1.462-1.03l-.232-1.187a8.374,8.374,0,0,1,6.779-9.985,9.518,9.518,0,0,1,10.881,7.367l.274,1.4A1.146,1.146,0,0,1,189.488,285.315Z" transform="translate(-111.003 -147.985)" fill="#407bff"/>
        <path id="Path_275" data-name="Path 275" d="M205.773,326.883h-50.13l-.339-9.961h50.13Z" transform="translate(-108.445 -154.259)" fill="#407bff"/>
        <path id="Path_276" data-name="Path 276" d="M185.231,261.768a2.687,2.687,0,0,1-2.7,2.8,2.918,2.918,0,0,1-2.895-2.8,2.688,2.688,0,0,1,2.7-2.8A2.917,2.917,0,0,1,185.231,261.768Z" transform="translate(-112.09 -145.576)" fill="#263238"/>
        <path id="Path_277" data-name="Path 277" d="M171.058,261.768a2.687,2.687,0,0,1-2.7,2.8,2.917,2.917,0,0,1-2.895-2.8,2.687,2.687,0,0,1,2.7-2.8A2.917,2.917,0,0,1,171.058,261.768Z" transform="translate(-109.966 -145.576)" fill="#263238"/>
        <path id="Path_278" data-name="Path 278" d="M156.885,261.768a2.687,2.687,0,0,1-2.7,2.8,2.917,2.917,0,0,1-2.894-2.8,2.687,2.687,0,0,1,2.7-2.8A2.917,2.917,0,0,1,156.885,261.768Z" transform="translate(-107.843 -145.576)" fill="#263238"/>
        <path id="Path_279" data-name="Path 279" d="M199.4,261.768a2.687,2.687,0,0,1-2.7,2.8,2.917,2.917,0,0,1-2.894-2.8,2.687,2.687,0,0,1,2.7-2.8A2.917,2.917,0,0,1,199.4,261.768Z" transform="translate(-114.213 -145.576)" fill="#263238"/>
        <path id="Path_280" data-name="Path 280" d="M213.578,261.768a2.687,2.687,0,0,1-2.7,2.8,2.917,2.917,0,0,1-2.894-2.8,2.687,2.687,0,0,1,2.7-2.8A2.918,2.918,0,0,1,213.578,261.768Z" transform="translate(-116.337 -145.576)" fill="#263238"/>
      </g>
    </g>
    <g id="Character" transform="translate(249.955 127.259)">
      <g id="Group_74" data-name="Group 74">
        <path id="Path_281" data-name="Path 281" d="M332.543,174.28c1.134,1.816,2.071,3.558,3.043,5.366.968,1.79,1.845,3.632,2.7,5.489a78.977,78.977,0,0,1,4.336,11.674c.15.5.267,1.037.393,1.56l.186.787.093.393.11.649a11.351,11.351,0,0,1-.265,4.379,24.8,24.8,0,0,1-2.645,6.339,50.6,50.6,0,0,1-7.555,9.924l-3.58-2.71a95.055,95.055,0,0,0,4.792-10.234,21.592,21.592,0,0,0,1.3-4.788,3.761,3.761,0,0,0-.071-1.5l-.335-1.039c-.14-.427-.264-.851-.433-1.281a94.165,94.165,0,0,0-4.48-10.274c-1.673-3.385-3.526-6.83-5.35-10.046Z" transform="translate(-283.604 -134.553)" fill="#ff8b7b"/>
        <path id="Path_282" data-name="Path 282" d="M330.548,224.425l-3.9,2.073,4.487,5.254s2.8-1.9,2.927-4.789Z" transform="translate(-283.883 -142.065)" fill="#ff8b7b"/>
        <path id="Path_283" data-name="Path 283" d="M320.466,230.1l4.809,3.815,4.932-1.8-4.488-5.254Z" transform="translate(-282.957 -142.431)" fill="#ff8b7b"/>
        <path id="Path_284" data-name="Path 284" d="M300.949,141.393c-.1.473-.424.8-.734.742s-.481-.5-.385-.97.424-.8.733-.742S301.045,140.92,300.949,141.393Z" transform="translate(-279.862 -129.479)" fill="#263238"/>
        <path id="Path_285" data-name="Path 285" d="M300.16,142.521a17.271,17.271,0,0,1-3.079,3.584,2.781,2.781,0,0,0,2.171.882Z" transform="translate(-279.454 -129.795)" fill="#ff5652"/>
        <path id="Path_286" data-name="Path 286" d="M298.9,161.156l.037-5.572,7.38.892s-.127,4.792-4.247,6.2Z" transform="translate(-279.726 -131.752)" fill="#ff8b7b"/>
        <path id="Path_287" data-name="Path 287" d="M301.028,150.864l5.2,1.493.1,3.412-7.38-.892Z" transform="translate(-279.733 -131.045)" fill="#ff8b7b"/>
        <path id="Path_288" data-name="Path 288" d="M306.416,152.356l-5.195-1.5L300.21,152.8a8.275,8.275,0,0,0,4.8,7.21,8.128,8.128,0,0,0,1.5-4.242Z" transform="translate(-279.922 -131.044)" opacity="0.2"/>
        <path id="Path_289" data-name="Path 289" d="M303.384,138.639a.283.283,0,0,0,.208-.475,2.807,2.807,0,0,0-2.41-.938.282.282,0,0,0-.231.326.285.285,0,0,0,.325.233h0a2.242,2.242,0,0,1,1.9.763A.283.283,0,0,0,303.384,138.639Z" transform="translate(-280.033 -128.998)" fill="#263238"/>
        <path id="Path_290" data-name="Path 290" d="M314.274,151.684c-.857,4.374-1.375,10.435,1.686,13.355,0,0-1.2,4.438-9.325,4.438-8.939,0-4.3-3.895-4.3-3.895,3.715-1.154,3.683-5.386,2.833-8.785Z" transform="translate(-280.06 -131.167)" fill="#ff8b7b"/>
        <path id="Path_291" data-name="Path 291" d="M317.686,169.758c.8-1.127.763-4.689-.086-5.317-1.371-1.015-7.241-1.248-15.147.57.852,3.45-.972,5.258-.972,5.258Z" transform="translate(-280.113 -132.962)" fill="#407bff"/>
        <path id="Path_292" data-name="Path 292" d="M351.5,408.014a1.926,1.926,0,0,1-1.489-.082.578.578,0,0,1-.137-.658.658.658,0,0,1,.365-.417c.808-.386,2.663.371,2.742.4a.142.142,0,0,1,.008.258A7.531,7.531,0,0,1,351.5,408.014Zm-.973-.956a.726.726,0,0,0-.167.055.38.38,0,0,0-.215.241c-.076.255.019.335.05.361.321.274,1.515.022,2.357-.315A4.66,4.66,0,0,0,350.529,407.058Z" transform="translate(-287.357 -169.381)" fill="#407bff"/>
        <path id="Path_293" data-name="Path 293" d="M353.119,407.244a.136.136,0,0,1-.069,0c-.677-.2-2.123-1.225-2.14-1.9a.461.461,0,0,1,.362-.458.771.771,0,0,1,.627.05c.8.408,1.3,2.064,1.325,2.135a.141.141,0,0,1-.036.14A.135.135,0,0,1,353.119,407.244Zm-1.692-2.114a.416.416,0,0,0-.062.017c-.175.061-.173.147-.172.184.009.4.964,1.207,1.665,1.534a3.418,3.418,0,0,0-1.087-1.682A.5.5,0,0,0,351.427,405.13Z" transform="translate(-287.518 -169.094)" fill="#407bff"/>
        <path id="Path_294" data-name="Path 294" d="M299.538,409.163c-.767,0-1.508-.105-1.757-.451a.536.536,0,0,1,.011-.619.707.707,0,0,1,.449-.331c1-.271,3.085.92,3.175.971a.142.142,0,0,1-.043.262A10.538,10.538,0,0,1,299.538,409.163ZM298.59,408a1.057,1.057,0,0,0-.274.032.428.428,0,0,0-.277.2c-.1.176-.064.264-.028.313.278.388,1.79.4,2.9.239A6.393,6.393,0,0,0,298.59,408Z" transform="translate(-279.545 -169.527)" fill="#407bff"/>
        <path id="Path_295" data-name="Path 295" d="M301.618,408.746a.14.14,0,0,1-.058-.013c-.722-.324-2.151-1.617-2.042-2.293.025-.159.139-.356.528-.4a1.031,1.031,0,0,1,.785.243,4.037,4.037,0,0,1,.928,2.3.143.143,0,0,1-.141.155Zm-1.459-2.424a.711.711,0,0,0-.085,0c-.255.025-.271.126-.276.159-.065.405.906,1.421,1.643,1.864a3.326,3.326,0,0,0-.789-1.844A.756.756,0,0,0,300.159,406.322Z" transform="translate(-279.818 -169.274)" fill="#407bff"/>
        <path id="Path_296" data-name="Path 296" d="M308.565,406.616h-5.98l-.6-13.848h5.98Z" transform="translate(-280.189 -167.286)" fill="#ff8b7b"/>
        <path id="Path_297" data-name="Path 297" d="M359.285,403.527l-5.845,1.265-5.868-12.9,5.845-1.265Z" transform="translate(-287.018 -166.966)" fill="#ff8b7b"/>
        <path id="Path_298" data-name="Path 298" d="M352.318,406.345l6.566-1.422a.522.522,0,0,1,.584.292l2.279,4.945a.879.879,0,0,1-.631,1.225c-2.3.457-3.443.564-6.331,1.189-1.776.385-5.786,1.361-8.24,1.893-2.4.519-3.3-1.825-2.341-2.262,4.289-1.96,6.082-3.686,7.244-5.294A1.449,1.449,0,0,1,352.318,406.345Z" transform="translate(-286.457 -169.106)" fill="#263238"/>
        <path id="Path_299" data-name="Path 299" d="M300.191,408.242h6.53a.522.522,0,0,1,.51.408l1.181,5.315a.871.871,0,0,1-.86,1.064c-2.356-.041-5.76-.179-8.72-.179-3.462,0-6.453.189-10.513.189-2.454,0-3.136-2.482-2.108-2.707,4.678-1.023,8.5-1.132,12.54-3.625A2.765,2.765,0,0,1,300.191,408.242Z" transform="translate(-277.756 -169.605)" fill="#263238"/>
        <g id="Group_70" data-name="Group 70" transform="translate(39.046 35.062)">
          <path id="Path_300" data-name="Path 300" d="M329.835,168.954c5.6,1.285,10.225,15.593,10.225,15.593l-11.255,8.578a24.567,24.567,0,0,1-5.969-11.051C320.909,174.574,324.1,167.64,329.835,168.954Z" transform="translate(-322.274 -168.793)" fill="#407bff"/>
          <path id="Path_301" data-name="Path 301" d="M329.835,168.954c5.6,1.285,10.225,15.593,10.225,15.593l-11.255,8.578a24.567,24.567,0,0,1-5.969-11.051C320.909,174.574,324.1,167.64,329.835,168.954Z" transform="translate(-322.274 -168.793)" opacity="0.4"/>
        </g>
        <path id="Path_302" data-name="Path 302" d="M293.482,184.578c-1.4,1.509-2.794,2.852-4.238,4.233q-1.075,1.03-2.2,2.021l-1.13.989-.283.246c-.139.118-.306.258-.485.4a7.145,7.145,0,0,1-1.642.969,5.4,5.4,0,0,1-2.069.428,5.016,5.016,0,0,1-1.785-.317,4.955,4.955,0,0,1-1.7-1.081,5.128,5.128,0,0,1-1.332-2.2,6.091,6.091,0,0,1-.243-1.263,8.192,8.192,0,0,1,.017-1.52c.039-.408.1-.761.157-1.094a21.342,21.342,0,0,1,.988-3.428,31.958,31.958,0,0,1,1.321-3.073c.539-1.082,1.061-1.868,1.581-2.774a69.245,69.245,0,0,1,7.185-9.741,65.609,65.609,0,0,1,8.716-8.262l3.129,3.22c-2.2,2.94-4.359,6.092-6.357,9.2a99.867,99.867,0,0,0-5.439,9.561c-.367.8-.82,1.678-1.075,2.348a23.32,23.32,0,0,0-.8,2.293,16.257,16.257,0,0,0-.483,2.148,2.845,2.845,0,0,0-.027.336c0,.066.014.1.006-.078a2.485,2.485,0,0,0-.109-.557,3.687,3.687,0,0,0-.982-1.581,4.072,4.072,0,0,0-1.4-.886,4.023,4.023,0,0,0-1.431-.262,3.587,3.587,0,0,0-1.371.262,3.794,3.794,0,0,0-.421.209l.326-.3,1.02-.936,2.034-1.9c1.344-1.268,2.7-2.619,3.976-3.874Z" transform="translate(-276.347 -132.279)" fill="#ff8b7b"/>
        <path id="Path_303" data-name="Path 303" d="M325.078,181.358c3.044,3.012,4.038,8.5,4.273,13.269l-.5.383a24.578,24.578,0,0,1-5.974-11.054c-.114-.448-.212-.9-.293-1.336Z" transform="translate(-283.275 -135.613)" opacity="0.2"/>
        <g id="Group_71" data-name="Group 71" transform="translate(10.168 33.672)">
          <path id="Path_304" data-name="Path 304" d="M289.328,174.7c-1.222,6.461-1.987,19.727,1.562,46h31.985c.22-4.91-2.864-28.861,1.871-52a83.429,83.429,0,0,0-10.707-1.352,117.3,117.3,0,0,0-13.6,0c-1.5.137-2.971.353-4.283.585A8.464,8.464,0,0,0,289.328,174.7Z" transform="translate(-288.307 -167.157)" fill="#407bff"/>
          <path id="Path_305" data-name="Path 305" d="M289.328,174.7c-1.222,6.461-1.987,19.727,1.562,46h31.985c.22-4.91-2.864-28.861,1.871-52a83.429,83.429,0,0,0-10.707-1.352,117.3,117.3,0,0,0-13.6,0c-1.5.137-2.971.353-4.283.585A8.464,8.464,0,0,0,289.328,174.7Z" transform="translate(-288.307 -167.157)" opacity="0.4"/>
        </g>
        <path id="Path_306" data-name="Path 306" d="M294.223,187.022l-5.78-1.384c-.179,3.5-.195,7.839.065,13.2C291.171,195.813,294.565,191.092,294.223,187.022Z" transform="translate(-278.14 -136.254)" opacity="0.2"/>
        <g id="Group_72" data-name="Group 72" transform="translate(21.802 223.666)">
          <path id="Path_307" data-name="Path 307" d="M301.991,392.772l.306,7.138h5.983l-.306-7.138Z" transform="translate(-301.991 -390.952)" opacity="0.2"/>
          <path id="Path_308" data-name="Path 308" d="M353.42,390.632l-5.847,1.266,3.028,6.648,5.847-1.266Z" transform="translate(-308.82 -390.632)" opacity="0.2"/>
        </g>
        <path id="Path_309" data-name="Path 309" d="M316.789,142.342c-1.536,5.733-2.144,9.166-5.682,11.55-5.321,3.585-11.946-.53-12.153-6.606-.187-5.468,2.357-13.924,8.509-15.08A8.094,8.094,0,0,1,316.789,142.342Z" transform="translate(-279.733 -128.227)" fill="#ff8b7b"/>
        <path id="Path_310" data-name="Path 310" d="M303.991,142.837c-.284-.769-1.609-6.693-.366-8.231s15.4-.432,17.491,1.628c3.472,3.417,1.064,6.466-2.738,10.4-2.858,2.958-2.968,6.294-4.411,6.783-2.527.858-6.444.052-7.231-2.646S303.991,142.837,303.991,142.837Z" transform="translate(-280.356 -128.501)" fill="#263238"/>
        <path id="Path_311" data-name="Path 311" d="M318.844,128.547c-5-2.13-14.383.226-19.447-.995a7.8,7.8,0,0,0,6.466,7.959,66.7,66.7,0,0,0,12.753,1.176C324.179,136.461,323.093,130.356,318.844,128.547Z" transform="translate(-279.798 -127.552)" fill="#263238"/>
        <path id="Path_312" data-name="Path 312" d="M323.194,136.682a9.49,9.49,0,0,0,5.291-1.015C329.423,137.928,324.281,138.548,323.194,136.682Z" transform="translate(-283.366 -128.768)" fill="#263238"/>
        <path id="Path_313" data-name="Path 313" d="M306.539,144.252a6.7,6.7,0,0,1-1.68,3.967c-1.3,1.437-2.664.542-2.895-1.207-.208-1.575.219-4.219,1.813-5.011C305.348,141.22,306.645,142.478,306.539,144.252Z" transform="translate(-280.178 -129.681)" fill="#ff8b7b"/>
        <path id="Path_314" data-name="Path 314" d="M304.69,230.14s6.787,45.7,10.513,62.821c4.08,18.749,25.957,80.779,25.957,80.779l10.7-2.318s-15.3-50.55-18.722-76.762c-2.63-20.133-7.813-64.52-7.813-64.52Z" transform="translate(-280.594 -142.922)" fill="#407bff"/>
        <path id="Path_315" data-name="Path 315" d="M344.571,394.427c-.046.01,2,3.871,2,3.871l12.044-2.608-1.015-3.621Z" transform="translate(-286.568 -167.182)" fill="#263238"/>
        <path id="Path_316" data-name="Path 316" d="M309.424,249.282c7.847,1.538,7.017,30.8,6.073,45.853-2.263-10.64-5.576-31.112-7.839-45.641A2.671,2.671,0,0,1,309.424,249.282Z" transform="translate(-281.038 -145.78)" opacity="0.3"/>
        <path id="Path_317" data-name="Path 317" d="M291.27,230.14s-.824,44.711-.173,62.947c.677,18.968,7.3,81.075,7.3,81.075h10.13s.372-61,.823-79.628c.491-20.308,2.943-64.394,2.943-64.394Z" transform="translate(-278.52 -142.922)" fill="#407bff"/>
        <path id="Path_318" data-name="Path 318" d="M297.437,394.8c-.047,0,.571,4.206.571,4.206h12.323l.333-3.754Z" transform="translate(-279.506 -167.59)" fill="#263238"/>
        <g id="Group_73" data-name="Group 73" transform="translate(2.453 34.501)">
          <path id="Path_319" data-name="Path 319" d="M300.5,176.812c2.867,7.728-13.979,16.829-13.979,16.829l-7.293-9.376s4.865-9.684,10.836-14.049C297.444,164.824,298.32,170.93,300.5,176.812Z" transform="translate(-279.232 -168.133)" fill="#407bff"/>
          <path id="Path_320" data-name="Path 320" d="M300.5,176.812c2.867,7.728-13.979,16.829-13.979,16.829l-7.293-9.376s4.865-9.684,10.836-14.049C297.444,164.824,298.32,170.93,300.5,176.812Z" transform="translate(-279.232 -168.133)" opacity="0.4"/>
        </g>
      </g>
    </g>
  </g>
</svg>
