<svg id="menu-home" xmlns="http://www.w3.org/2000/svg" xmlns:xlink="http://www.w3.org/1999/xlink" width="512" height="512" viewBox="0 0 512 512">
  <defs>
    <clipPath id="clip-path">
      <rect id="Rectangle_22" data-name="Rectangle 22" width="512" height="512" fill="#231F20"/>
    </clipPath>
  </defs>
  <g id="Group_12" data-name="Group 12" clip-path="url(#clip-path)">
    <path id="Path_13" data-name="Path 13" d="M549.2,362.657h0L340.354,153.807a47.127,47.127,0,0,0-66.653,0L64.944,362.54l-.209.209a47.1,47.1,0,0,0,31.372,80.314h9.8v153.6a55.226,55.226,0,0,0,55.156,55.156h81.711a15.011,15.011,0,0,0,14.988-15.011V516.3a25.2,25.2,0,0,1,25.181-25.158h48.2A25.2,25.2,0,0,1,356.319,516.3V636.81a15.011,15.011,0,0,0,14.988,15.011h81.71a55.227,55.227,0,0,0,55.156-55.156v-153.6H515.9a47.151,47.151,0,0,0,33.373-80.454Zm-21.248,45.428a17.036,17.036,0,0,1-12.125,5.027H493.349a15.011,15.011,0,0,0-15.011,15.011v168.7A25.2,25.2,0,0,1,453.18,621.98H386.294V516.48a55.226,55.226,0,0,0-55.18-55.156H282.987a55.227,55.227,0,0,0-55.18,55.157v105.5h-66.7a25.2,25.2,0,0,1-25.158-25.158v-168.7a15.011,15.011,0,0,0-15.011-15.011H97.9a17.1,17.1,0,0,1-11.8-29.23h0L294.949,175.032a17.129,17.129,0,0,1,24.227,0l208.8,208.8h0a17.175,17.175,0,0,1,0,24.2Zm0,0" transform="translate(-50.12 -140.961)" fill="#231F20"/>
  </g>
</svg>
