<svg xmlns="http://www.w3.org/2000/svg" xmlns:xlink="http://www.w3.org/1999/xlink" width="512" height="512" viewBox="0 0 512 512">
  <defs>
    <clipPath id="clip-path">
      <rect id="Rectangle_1" data-name="Rectangle 1" width="512" height="512" fill="#231F20"/>
    </clipPath>
    <clipPath id="clip-custom_1">
      <rect width="512" height="512"/>
    </clipPath>
  </defs>
  <g id="custom_1" data-name="custom – 1" clip-path="url(#clip-custom_1)">
    <g id="custom_1-2" data-name="custom – 1" clip-path="url(#clip-path)">
      <path id="Path_14" data-name="Path 14" d="M389.991,342.015v109.7l72.8,72.819a19.994,19.994,0,1,1-28.276,28.276l-78.662-78.66a20.015,20.015,0,0,1-5.865-14.15V342.015a20,20,0,0,1,40.006,0Zm58.671-138H291.338a176.733,176.733,0,0,0-116.364,43.472V224a20,20,0,0,0-40.005,0v78.66a20.037,20.037,0,0,0,19.991,19.99h78.662a20,20,0,0,0,0-40H195.8A137.774,137.774,0,0,1,291.218,244H448.545A137.493,137.493,0,0,1,585.854,381.3V538.62a137.493,137.493,0,0,1-137.309,137.3H291.222A137.493,137.493,0,0,1,153.913,538.619V460.005a19.991,19.991,0,0,0-39.913,0v78.66A177.522,177.522,0,0,0,291.338,716H448.662A177.523,177.523,0,0,0,626,538.665V381.346A177.523,177.523,0,0,0,448.662,204.011Zm0,0" transform="translate(-114 -203.999)" fill="#231F20"/>
    </g>
  </g>
</svg>
