<svg xmlns="http://www.w3.org/2000/svg" xmlns:xlink="http://www.w3.org/1999/xlink" width="22" height="22" viewBox="0 0 22 22">
  <defs>
    <clipPath id="clip-path">
      <rect id="Rectangle_22" data-name="Rectangle 22" width="22" height="22" fill="#0e3746"/>
    </clipPath>
  </defs>
  <g id="Home" transform="translate(-258 -473)">
    <g id="Icon">
      <g id="Group_13" data-name="Group 13" transform="translate(258 473)">
        <g id="Group_12" data-name="Group 12" clip-path="url(#clip-path)">
          <path id="Path_13" data-name="Path 13" d="M72.4,149.569l0,0-8.974-8.974a2.025,2.025,0,0,0-2.864,0l-8.97,8.969-.009.009a2.024,2.024,0,0,0,1.348,3.451c.021,0,.042,0,.063,0h.358v6.6a2.373,2.373,0,0,0,2.37,2.37h3.511a.645.645,0,0,0,.644-.645v-5.178a1.083,1.083,0,0,1,1.082-1.081h2.071a1.083,1.083,0,0,1,1.082,1.081v5.178a.645.645,0,0,0,.644.645h3.511a2.373,2.373,0,0,0,2.37-2.37v-6.6h.332a2.026,2.026,0,0,0,1.434-3.457Zm-.913,1.952a.732.732,0,0,1-.521.216H70a.645.645,0,0,0-.645.645v7.249a1.083,1.083,0,0,1-1.081,1.081H65.4v-4.533a2.373,2.373,0,0,0-2.371-2.37H60.961a2.373,2.373,0,0,0-2.371,2.37v4.533H55.724a1.083,1.083,0,0,1-1.081-1.081v-7.249a.645.645,0,0,0-.645-.645h-.99a.735.735,0,0,1-.507-1.256h0l8.974-8.974a.736.736,0,0,1,1.041,0l8.972,8.972,0,0a.738.738,0,0,1,0,1.04Zm0,0" transform="translate(-50.955 -140.043)" fill="#F79E1B"/>
        </g>
      </g>
    </g>
  </g>
</svg>
