<svg id="menu-scan" xmlns="http://www.w3.org/2000/svg" xmlns:xlink="http://www.w3.org/1999/xlink" width="512" height="512" viewBox="0 0 512 512">
  <defs>
    <clipPath id="clip-path">
      <rect id="Rectangle_2" data-name="Rectangle 2" width="512" height="160" fill="#231F20"/>
    </clipPath>
  </defs>
  <g id="top">
    <g id="Mask_Group_1" data-name="Mask Group 1" clip-path="url(#clip-path)">
      <g id="Path_1" data-name="Path 1" fill="none">
        <path d="M180,0H332c99.411,0,180,67.864,180,151.579v128c0,83.715-80.589,151.579-180,151.579H180c-99.411,0-180-67.864-180-151.579v-128C0,67.864,80.589,0,180,0Z" stroke="none"/>
        <path d="M 180 39.99993896484375 C 102.8037719726563 39.99993896484375 40 90.05404663085938 40 151.5789489746094 L 40 279.5789489746094 C 40 341.1037292480469 102.8037719726563 391.1578369140625 180 391.1578369140625 L 332 391.1578369140625 C 409.1962280273438 391.1578369140625 472 341.1037292480469 472 279.5789489746094 L 472 151.5789489746094 C 472 90.05404663085938 409.1962280273438 39.99993896484375 332 39.99993896484375 L 180 39.99993896484375 M 180 -6.103515625e-05 L 332 -6.103515625e-05 C 431.4112243652344 -6.103515625e-05 512 67.86416625976563 512 151.5789489746094 L 512 279.5789489746094 C 512 363.2937316894531 431.4112243652344 431.1578369140625 332 431.1578369140625 L 180 431.1578369140625 C 80.58877563476563 431.1578369140625 0 363.2937316894531 0 279.5789489746094 L 0 151.5789489746094 C 0 67.86416625976563 80.58877563476563 -6.103515625e-05 180 -6.103515625e-05 Z" stroke="none" fill="#231F20"/>
      </g>
    </g>
    <circle id="Ellipse_1" data-name="Ellipse 1" cx="20" cy="20" r="20" transform="translate(0 140)" fill="#231F20"/>
    <circle id="Ellipse_2" data-name="Ellipse 2" cx="20" cy="20" r="20" transform="translate(472 140)" fill="#231F20"/>
  </g>
  <g id="top-2" data-name="top" transform="translate(512 512) rotate(180)">
    <g id="Mask_Group_1-2" data-name="Mask Group 1" clip-path="url(#clip-path)">
      <g id="Path_1-2" data-name="Path 1" fill="none">
        <path d="M180,0H332c99.411,0,180,67.864,180,151.579v128c0,83.715-80.589,151.579-180,151.579H180c-99.411,0-180-67.864-180-151.579v-128C0,67.864,80.589,0,180,0Z" stroke="none"/>
        <path d="M 180 39.99993896484375 C 102.8037719726563 39.99993896484375 40 90.05404663085938 40 151.5789489746094 L 40 279.5789489746094 C 40 341.1037292480469 102.8037719726563 391.1578369140625 180 391.1578369140625 L 332 391.1578369140625 C 409.1962280273438 391.1578369140625 472 341.1037292480469 472 279.5789489746094 L 472 151.5789489746094 C 472 90.05404663085938 409.1962280273438 39.99993896484375 332 39.99993896484375 L 180 39.99993896484375 M 180 -6.103515625e-05 L 332 -6.103515625e-05 C 431.4112243652344 -6.103515625e-05 512 67.86416625976563 512 151.5789489746094 L 512 279.5789489746094 C 512 363.2937316894531 431.4112243652344 431.1578369140625 332 431.1578369140625 L 180 431.1578369140625 C 80.58877563476563 431.1578369140625 0 363.2937316894531 0 279.5789489746094 L 0 151.5789489746094 C 0 67.86416625976563 80.58877563476563 -6.103515625e-05 180 -6.103515625e-05 Z" stroke="none" fill="#231F20"/>
      </g>
    </g>
    <circle id="Ellipse_1-2" data-name="Ellipse 1" cx="20" cy="20" r="20" transform="translate(0 140)" fill="#231F20"/>
    <circle id="Ellipse_2-2" data-name="Ellipse 2" cx="20" cy="20" r="20" transform="translate(472 140)" fill="#231F20"/>
  </g>
</svg>
