<svg xmlns="http://www.w3.org/2000/svg" width="40" height="25" viewBox="0 0 40 25">
  <g id="Card_icon" data-name="Card icon" transform="translate(-198.309 -128.641)">
    <path id="Rectangle_20" data-name="Rectangle 20" d="M4.18,0H35.819A4.181,4.181,0,0,1,40,4.181V20.818A4.182,4.182,0,0,1,35.818,25H4.18A4.18,4.18,0,0,1,0,20.82V4.18A4.18,4.18,0,0,1,4.18,0Z" transform="translate(198.309 128.641)" fill="#f9f9f9"/>
    <g id="Group_8" data-name="Group 8" transform="translate(206.164 137.202)">
      <g id="Group_7" data-name="Group 7" transform="translate(0 0)">
        <path id="Path_7" data-name="Path 7" d="M251.885,163.691H249.9l1.239-7.612h1.982Z" transform="translate(-241.356 -155.943)" fill="#0066b2"/>
        <path id="Path_8" data-name="Path 8" d="M230.357,156.079l-1.889,5.236-.224-1.128h0l-.667-3.423a.848.848,0,0,0-.94-.685h-3.124l-.037.129a7.412,7.412,0,0,1,2.074.87l1.721,6.613h2.065l3.153-7.612Z" transform="translate(-223.477 -155.943)" fill="#0066b2"/>
        <path id="Path_9" data-name="Path 9" d="M282,163.691h1.82l-1.587-7.612h-1.593a.911.911,0,0,0-.915.567l-2.956,7.045h2.066l.413-1.13h2.52ZM279.821,161l1.041-2.849.586,2.849Z" transform="translate(-259.533 -155.943)" fill="#0066b2"/>
        <path id="Path_10" data-name="Path 10" d="M265.448,157.625l.283-1.635a5.72,5.72,0,0,0-1.782-.332c-.984,0-3.319.43-3.319,2.52,0,1.967,2.742,1.991,2.742,3.024s-2.459.848-3.271.2l-.294,1.709a5.549,5.549,0,0,0,2.237.43c1.352,0,3.393-.7,3.393-2.606,0-1.979-2.766-2.164-2.766-3.024S264.6,157.157,265.448,157.625Z" transform="translate(-248.055 -155.658)" fill="#0066b2"/>
      </g>
      <path id="Path_11" data-name="Path 11" d="M228.244,160.187l-.667-3.423a.848.848,0,0,0-.94-.685h-3.124l-.037.129a7.687,7.687,0,0,1,2.942,1.477A5.933,5.933,0,0,1,228.244,160.187Z" transform="translate(-223.477 -155.943)" fill="#f9a533"/>
    </g>
  </g>
</svg>
